<svg xmlns="http://www.w3.org/2000/svg" viewBox="0 0 445.47 521.28"><g style="isolation:isolate"><g id="Layer_2" data-name="Layer 2"><g id="Layer_1-2" data-name="Layer 1"><path d="M213.89,441.3a54.31,54.31,0,0,1-4.46,22.07A56.06,56.06,0,0,1,197.37,481a57,57,0,0,1-10.23,7.91,34.38,34.38,0,1,1-5.94-68.45c.49,0,1,0,1.48,0a34.35,34.35,0,0,1,31.17,19.87A9.39,9.39,0,0,1,213.89,441.3Z" transform="translate(0 0)" style="fill:#50b848;opacity:0.42;mix-blend-mode:multiply"/><path d="M222.57,444.12a57.24,57.24,0,0,0-4.22-21.46,54.72,54.72,0,0,0-29.41-30,53.33,53.33,0,0,0-21.54-4.38,51.27,51.27,0,0,0-19.18,3.62,56.64,56.64,0,0,0-16.17,10,55.35,55.35,0,0,0-11.87,15.07,58.21,58.21,0,0,0-6.35,18.8,36.27,36.27,0,0,0-7.8.91,48.12,48.12,0,0,0-8.3,2.7,49.06,49.06,0,0,0-7.8,4.3,34,34,0,0,0-6.62,5.86,49.94,49.94,0,0,0-10.2,18.42c-2.17,7-3.23,15.45-3.23,25.11v28.27h9.05A16.36,16.36,0,0,0,95.3,504.92V493.39a72.37,72.37,0,0,1,1.18-13.58,25.68,25.68,0,0,1,4.26-10.62c3.15-4.45,8.1-7,14.87-7.46a55.39,55.39,0,0,0,7.58,15.57A56,56,0,0,0,135,489.66a55.07,55.07,0,0,0,15.07,8.18,51,51,0,0,0,17.35,3,53.06,53.06,0,0,0,21.08-4.26,54,54,0,0,0,7.38-3.8,57.56,57.56,0,0,0,10.24-7.92,56.22,56.22,0,0,0,12.06-17.58,54.27,54.27,0,0,0,4.45-22.07A9.39,9.39,0,0,0,222.57,444.12Zm-27.66,12.71a28,28,0,0,1-6.35,9.47,29.67,29.67,0,0,1-9.52,6.24,30.7,30.7,0,0,1-11.64,2.25,26.44,26.44,0,0,1-6.77-.84,25.09,25.09,0,0,1-4.68-1.52,29.18,29.18,0,0,1-9.17-6.32,28.55,28.55,0,0,1-6.09-9.47,31.86,31.86,0,0,1-2.17-11.84,32.69,32.69,0,0,1,2.17-11.91,30.31,30.31,0,0,1,6-9.66,28.93,28.93,0,0,1,9.06-6.51,28,28,0,0,1,11.64-2.43,30.11,30.11,0,0,1,12,2.36,28.93,28.93,0,0,1,9.43,6.39c.38.42.76.8,1.11,1.25a27.9,27.9,0,0,1,5.09,8.45,32.73,32.73,0,0,1,2.17,12.06A31,31,0,0,1,194.91,456.83Z" transform="translate(0 0)" style="fill:#fff"/><path d="M321.56,337.06h-8.25a15.64,15.64,0,0,0-15.64,15.64V454.33H265.93V405.92h-8.24a15.64,15.64,0,0,0-15.64,15.64v54.09q0,9.09-2.82,13.11t-10,4a37.91,37.91,0,0,1-5.29-.35,53.36,53.36,0,0,1-6-1.22l1.7,24.47a33.87,33.87,0,0,0,5.46,1.13,50,50,0,0,0,6.66.44q16.89,0,24.91-9.09t9-29.36h55.79V361.53a9.38,9.38,0,0,0,9.37-9.37v-5.73A9.37,9.37,0,0,0,321.56,337.06Z" transform="translate(0 0)" style="fill:#fff"/><path d="M436.68,498.94a8.79,8.79,0,0,1-8.79-8.79c0-100-74.44-187-173.17-202.16a8.79,8.79,0,1,1,2.68-17.37c107.21,16.5,188.07,110.88,188.07,219.53A8.79,8.79,0,0,1,436.68,498.94Z" transform="translate(0 0)" style="fill:#fff"/><path d="M8.79,498.94a8.79,8.79,0,0,0,8.79-8.79c0-100,74.44-187,173.17-202.16a8.79,8.79,0,0,0-2.68-17.37C80.86,287.12,0,381.5,0,490.15A8.79,8.79,0,0,0,8.79,498.94Z" transform="translate(0 0)" style="fill:#fff"/><circle cx="220.83" cy="230.78" r="39.73" style="fill:#fff"/><path d="M302.08,198.38a7.33,7.33,0,0,1-6.95-9.62L308,149.87a17.85,17.85,0,0,0-2.6-16.19l-16-21.62a32.33,32.33,0,0,1-1.53-36.33l24.88-40.44A7.32,7.32,0,0,1,325.21,43L300.33,83.4a17.77,17.77,0,0,0,.84,20l16,21.62a32.54,32.54,0,0,1,4.73,29.48L309,193.35A7.33,7.33,0,0,1,302.08,198.38Z" transform="translate(0 0)" style="fill:#fff"/><path d="M152.46,192.88a7.32,7.32,0,0,1-6.43-10.8l17.7-32.77A17.85,17.85,0,0,0,161,133.68l-16-21.62a32.33,32.33,0,0,1-1.53-36.33l24.88-40.44A7.32,7.32,0,1,1,180.82,43L155.94,83.4a17.78,17.78,0,0,0,.84,20l16,21.61a32.5,32.5,0,0,1,4.72,29.48l-.51,1.19-18,33.39A7.31,7.31,0,0,1,152.46,192.88Z" transform="translate(0 0)" style="fill:#fff"/><path d="M223.33,156a7.23,7.23,0,0,1-3.9-1.13,7.32,7.32,0,0,1-2.29-10.1l24-38a17.86,17.86,0,0,0-2.83-15.41l-16-21.62a32.35,32.35,0,0,1-1.53-36.34L239.22,3.49a7.32,7.32,0,1,1,12.47,7.67L233.31,41a17.77,17.77,0,0,0,.84,20l16,21.62a32.53,32.53,0,0,1,4.72,29.48l-.76,1.61L229.53,152.6A7.31,7.31,0,0,1,223.33,156Z" transform="translate(0 0)" style="fill:#fff"/><path d="M247.27,394.75a19,19,0,0,0,12.15-4.11q5.18-4.11,5.17-12.12a14.83,14.83,0,0,0-5-11.57,19.44,19.44,0,0,0-24.71,0,14.8,14.8,0,0,0-5,11.57q0,8,5.18,12.12A18.91,18.91,0,0,0,247.27,394.75Z" transform="translate(0 0)" style="fill:#fff"/></g></g></g></svg>