<svg xmlns="http://www.w3.org/2000/svg" viewBox="0 0 492.24 630.42"><g style="isolation:isolate"><g id="Layer_2" data-name="Layer 2"><g id="Layer_1-2" data-name="Layer 1"><path d="M12.46,617.58q-4.7,0-7.31-2.43a8.85,8.85,0,0,1-2.61-6.81,9.67,9.67,0,0,1,2.9-7.44,11,11,0,0,1,7.8-2.72h2.57v-2.52h3.34v18.8h4.44c.13,0,.2,0,.2.15v2.78c0,.13-.07.19-.2.19Zm3.35-3.12V601.29H13.35a7.52,7.52,0,0,0-5.43,1.85A6.85,6.85,0,0,0,6,608.3a6,6,0,0,0,1.66,4.58,6.56,6.56,0,0,0,4.71,1.58ZM10.43,592a2.23,2.23,0,0,1-1.55-.57,2.3,2.3,0,0,1-.64-1.83,2.33,2.33,0,0,1,.64-1.84,2.22,2.22,0,0,1,1.55-.56,2.12,2.12,0,0,1,1.59.61,2.51,2.51,0,0,1,.59,1.79,2.56,2.56,0,0,1-.58,1.78A2.1,2.1,0,0,1,10.43,592Zm6.76,0a2.14,2.14,0,0,1-1.61-.62,2.51,2.51,0,0,1-.59-1.78,2.56,2.56,0,0,1,.58-1.78,2.1,2.1,0,0,1,1.62-.62,2,2,0,0,1,1.62.65,3,3,0,0,1,0,3.5A2.08,2.08,0,0,1,17.19,592Z" transform="translate(-2.54)" style="fill:#fff"/><path d="M23.21,617.58a.17.17,0,0,1-.19-.19v-2.78c0-.1.07-.15.19-.15H28V587.18H31.3v19.6A16.61,16.61,0,0,1,35.9,600a9.54,9.54,0,0,1,6.21-2.27q4.43,0,6.69,2.47t2.26,7.69v9.65Zm24.53-3.12v-6.35q0-3.69-1.57-5.43a6.11,6.11,0,0,0-4.76-1.74q-6,0-10.11,10.24v3.28Zm-6.45-20.09a2.09,2.09,0,0,1-1.6-.62,3,3,0,0,1,0-3.56,2.12,2.12,0,0,1,1.61-.62,2.09,2.09,0,0,1,1.63.65,3,3,0,0,1,0,3.5A2.05,2.05,0,0,1,41.29,594.37Z" transform="translate(-2.54)" style="fill:#fff"/><path d="M72.19,618.54a8.46,8.46,0,0,1-2.35,6.37,9.21,9.21,0,0,1-6.67,2.29,12.32,12.32,0,0,1-7-2.06l1.57-2.67a18,18,0,0,0,2.59,1.14,9,9,0,0,0,3,.46,5.74,5.74,0,0,0,4.16-1.45,5.18,5.18,0,0,0,1.5-3.88v-1.16H65.08a8.58,8.58,0,0,1-6.44-2.34q-2.28-2.34-2.28-6.78A9.84,9.84,0,0,1,59.28,601a10.83,10.83,0,0,1,7.8-2.79h5.11v16.28H75.4c.12,0,.19,0,.19.15v2.78a.17.17,0,0,1-.19.19H72.19Zm-3.31-4.08V601.29H67.2a7.45,7.45,0,0,0-5.41,1.88,7,7,0,0,0-1.94,5.25A6.61,6.61,0,0,0,61.18,613a5.16,5.16,0,0,0,4,1.46Z" transform="translate(-2.54)" style="fill:#fff"/><path d="M75,617.58a.17.17,0,0,1-.19-.19v-2.78c0-.1.06-.15.19-.15H81a7.93,7.93,0,0,1-1.51-2.8,10.84,10.84,0,0,1-.51-3.24,9.81,9.81,0,0,1,2.89-7.5,10.9,10.9,0,0,1,7.81-2.74h5.11v16.28h4.14a.19.19,0,0,1,.17.1l0,.09v2.78c0,.1-.07.15-.19.15Zm16.4-3.12V601.29H89.74a7.42,7.42,0,0,0-5.42,1.89,7,7,0,0,0-1.92,5.24q0,6,5.34,6Zm-3.76-20.09a2.08,2.08,0,0,1-1.6-.62,3,3,0,0,1,0-3.56,2.12,2.12,0,0,1,1.61-.62,2.05,2.05,0,0,1,1.62.65,2.93,2.93,0,0,1,0,3.5A2,2,0,0,1,87.66,594.37Z" transform="translate(-2.54)" style="fill:#fff"/><path d="M98.5,617.58c-.13,0-.2-.06-.2-.19v-2.78c0-.1.07-.15.2-.15h16.74q-1.5-1.55-2.46-7.33a10.91,10.91,0,0,0-1.66-4.81,3.87,3.87,0,0,0-3.26-1.42,11.84,11.84,0,0,0-5.66,1.6l-1.36-2.75a10.92,10.92,0,0,1,3.39-1.55,15.32,15.32,0,0,1,3.67-.43,8.29,8.29,0,0,1,4,.88,6.46,6.46,0,0,1,2.54,2.61,15.47,15.47,0,0,1,1.44,5q.9,6.27,2.82,8.25h2.62c.12,0,.19,0,.19.15v2.78a.17.17,0,0,1-.19.19Z" transform="translate(-2.54)" style="fill:#fff"/><path d="M120.93,617.58c-.13,0-.2-.06-.2-.19v-2.78c0-.1.07-.15.2-.15h4.84a19.78,19.78,0,0,1-1.45-6.84,14,14,0,0,1,1.41-6.37,11.36,11.36,0,0,1,3.28-2,10.59,10.59,0,0,1,3.86-.73,8.21,8.21,0,0,1,4.29,1.11,7.25,7.25,0,0,1,2.84,3.13,10.43,10.43,0,0,1,1,4.61,12.37,12.37,0,0,1-1.11,5.44,8.19,8.19,0,0,1-3.15,3.5,8.8,8.8,0,0,1-4.65,1.22Zm6.9-10.64a21,21,0,0,0,.32,3.64,20.65,20.65,0,0,0,1.17,3.88h2.76a4.75,4.75,0,0,0,4-1.82,8.49,8.49,0,0,0,1.39-5.25,6.25,6.25,0,0,0-1.34-4.13,4.15,4.15,0,0,0-3.27-1.6,6.89,6.89,0,0,0-2.44.45,8,8,0,0,0-2.12,1.19,6.08,6.08,0,0,0-.4,1.71C127.86,605.59,127.83,606.23,127.83,606.94Z" transform="translate(-2.54)" style="fill:#fff"/><path d="M169.28,617.58q-4.69,0-7.31-2.43a8.85,8.85,0,0,1-2.61-6.81,9.71,9.71,0,0,1,2.9-7.44,11,11,0,0,1,7.8-2.72h2.57v-2.52H176v18.8h4.45c.12,0,.19,0,.19.15v2.78a.17.17,0,0,1-.19.19Zm3.35-3.12V601.29h-2.46a7.5,7.5,0,0,0-5.42,1.85,6.82,6.82,0,0,0-1.92,5.16,6,6,0,0,0,1.66,4.58,6.59,6.59,0,0,0,4.71,1.58ZM167.26,592a2.11,2.11,0,0,1-2.2-2.4,2.33,2.33,0,0,1,.64-1.84,2.27,2.27,0,0,1,1.56-.56,2.09,2.09,0,0,1,1.58.61,3,3,0,0,1,0,3.57A2.09,2.09,0,0,1,167.26,592Zm6.75,0a2.1,2.1,0,0,1-1.6-.62,2.47,2.47,0,0,1-.6-1.78,2.51,2.51,0,0,1,.59-1.78,2.06,2.06,0,0,1,1.61-.62,2,2,0,0,1,1.62.65,3,3,0,0,1,0,3.5A2.05,2.05,0,0,1,174,592Z" transform="translate(-2.54)" style="fill:#fff"/><path d="M180,617.58c-.13,0-.2-.06-.2-.19v-2.78c0-.1.07-.15.2-.15h6.33V598.18h3.47v16.28h5.85c.13,0,.19,0,.19.15v2.78a.17.17,0,0,1-.19.19Zm4.8,8a2.22,2.22,0,0,1-1.55-.56,3,3,0,0,1,0-3.68,2.27,2.27,0,0,1,1.55-.56,2.08,2.08,0,0,1,1.58.61,2.47,2.47,0,0,1,.6,1.79,2.51,2.51,0,0,1-.59,1.78A2,2,0,0,1,184.84,625.59Zm6.75,0A2.08,2.08,0,0,1,190,625a3,3,0,0,1,0-3.56,2.12,2.12,0,0,1,1.61-.62,2.05,2.05,0,0,1,1.62.65,2.93,2.93,0,0,1,0,3.5A2,2,0,0,1,191.59,625.59Z" transform="translate(-2.54)" style="fill:#fff"/><path d="M195.31,617.58a.17.17,0,0,1-.19-.19v-2.78c0-.1.07-.15.19-.15h16.44v-7.37A5.28,5.28,0,0,0,210,602.7q-1.75-1.41-5.44-1.41h-6.63V598a23.67,23.67,0,0,1,3.47-5.31,29.47,29.47,0,0,1,4.95-4.65,22.73,22.73,0,0,1,5.33-3.05l1.24,3a25.73,25.73,0,0,0-7,4.39,17.73,17.73,0,0,0-4.73,5.73h3.39c3.41,0,6,.72,7.81,2.15a7.44,7.44,0,0,1,2.7,6.18v8h5.08q.21,0,.21.15v2.78c0,.13-.07.19-.21.19Z" transform="translate(-2.54)" style="fill:#fff"/><path d="M219.77,617.58c-.13,0-.2-.06-.2-.19v-2.78c0-.1.07-.15.2-.15h5.15V587.18h3.47v27.28h5.09c.13,0,.19,0,.19.15v2.78a.17.17,0,0,1-.19.19Z" transform="translate(-2.54)" style="fill:#fff"/><path d="M233.08,617.58a.17.17,0,0,1-.19-.19v-2.78c0-.1.06-.15.19-.15h4.84a20,20,0,0,1-1.45-6.84,14,14,0,0,1,1.41-6.37,11.28,11.28,0,0,1,3.29-2,10.49,10.49,0,0,1,3.85-.73,8.16,8.16,0,0,1,4.29,1.11,7.25,7.25,0,0,1,2.84,3.13,10.43,10.43,0,0,1,1,4.61,13,13,0,0,1-.82,4.71A4.83,4.83,0,0,0,254.2,614a6.26,6.26,0,0,0,2.74.51h.19q.21,0,.21.15v2.78c0,.13-.07.19-.21.19h-.19a9.6,9.6,0,0,1-3.55-.58,8,8,0,0,1-2.82-2,7.74,7.74,0,0,1-2.89,2,9.58,9.58,0,0,1-3.44.63Zm6.9-10.64a19.28,19.28,0,0,0,1.49,7.52h2.77a4.74,4.74,0,0,0,4-1.82,8.49,8.49,0,0,0,1.39-5.25,6.2,6.2,0,0,0-1.34-4.13,4.15,4.15,0,0,0-3.27-1.6,6.79,6.79,0,0,0-2.43.45,7.87,7.87,0,0,0-2.13,1.19,6.08,6.08,0,0,0-.4,1.71C240,605.59,240,606.23,240,606.94Z" transform="translate(-2.54)" style="fill:#fff"/><path d="M256.75,617.58a.17.17,0,0,1-.19-.19v-2.78c0-.1.06-.15.19-.15h5.15V587.18h3.47v30.4Z" transform="translate(-2.54)" style="fill:#fff"/><path d="M273.19,587.18h3.47v30.4h-3.47Z" transform="translate(-2.54)" style="fill:#fff"/><path d="M305.63,627.2a8.93,8.93,0,0,1-6.77-2.6,9.81,9.81,0,0,1-2.48-7.05,27,27,0,0,1,1.61-9.44h3.24a28,28,0,0,0-1.34,9.2,7,7,0,0,0,1.69,5,6.3,6.3,0,0,0,4.76,1.76h7.9q3.81,0,5.5-1.51a6,6,0,0,0,1.69-4.7v-.28h-3.61c-2.88,0-5.09-.78-6.61-2.34s-2.28-3.82-2.28-6.78a9.87,9.87,0,0,1,2.92-7.51,10.87,10.87,0,0,1,7.78-2.77h5.12v19.64q0,9.38-9.88,9.38Zm15.8-12.74V601.29h-1.68a7.45,7.45,0,0,0-5.41,1.88,7,7,0,0,0-1.93,5.25,6.66,6.66,0,0,0,1.32,4.58,5.16,5.16,0,0,0,4,1.46Zm-6.6-20.09a2.27,2.27,0,0,1-1.56-.56,3,3,0,0,1,0-3.68,2.31,2.31,0,0,1,1.56-.56,2.08,2.08,0,0,1,1.58.61,3,3,0,0,1,0,3.57A2.06,2.06,0,0,1,314.83,594.37Zm6.75,0a2.08,2.08,0,0,1-1.6-.62,2.47,2.47,0,0,1-.59-1.78,2.51,2.51,0,0,1,.58-1.78,2.11,2.11,0,0,1,1.61-.62,2.05,2.05,0,0,1,1.62.65,3,3,0,0,1,0,3.5A2,2,0,0,1,321.58,594.37Z" transform="translate(-2.54)" style="fill:#fff"/><path d="M346.66,618.54a8.46,8.46,0,0,1-2.35,6.37,9.21,9.21,0,0,1-6.67,2.29,12.32,12.32,0,0,1-7-2.06l1.57-2.67a17.55,17.55,0,0,0,2.59,1.14,8.93,8.93,0,0,0,3,.46,5.72,5.72,0,0,0,4.15-1.45,5.15,5.15,0,0,0,1.51-3.88v-1.16h-3.83a8.57,8.57,0,0,1-6.44-2.34q-2.28-2.34-2.28-6.78a9.84,9.84,0,0,1,2.92-7.49,10.8,10.8,0,0,1,7.8-2.79h5.11v16.28h3.21c.12,0,.19,0,.19.15v2.78a.17.17,0,0,1-.19.19h-3.21Zm-3.32-4.08V601.29h-1.68a7.44,7.44,0,0,0-5.4,1.88,7,7,0,0,0-1.94,5.25,6.61,6.61,0,0,0,1.33,4.58,5.16,5.16,0,0,0,4,1.46Z" transform="translate(-2.54)" style="fill:#fff"/><path d="M349.48,617.58a.17.17,0,0,1-.19-.19v-2.78c0-.1.07-.15.19-.15h5.94a7.62,7.62,0,0,1-1.51-2.8,10.85,10.85,0,0,1-.52-3.24,9.84,9.84,0,0,1,2.89-7.5,10.92,10.92,0,0,1,7.81-2.74h5.12v16.28h4.13a.19.19,0,0,1,.18.1l0,.09v2.78c0,.1-.07.15-.2.15Zm16.41-3.12V601.29h-1.68a7.42,7.42,0,0,0-5.42,1.89,7,7,0,0,0-1.92,5.24q0,6,5.34,6Zm-6.49-20.09a2.22,2.22,0,0,1-1.55-.56,3,3,0,0,1,0-3.68,2.27,2.27,0,0,1,1.55-.56,2.12,2.12,0,0,1,1.59.61,2.51,2.51,0,0,1,.59,1.79,2.56,2.56,0,0,1-.58,1.78A2.07,2.07,0,0,1,359.4,594.37Zm6.75,0a2.09,2.09,0,0,1-1.6-.62,3,3,0,0,1,0-3.56,2.12,2.12,0,0,1,1.61-.62,2.09,2.09,0,0,1,1.63.65,3,3,0,0,1,0,3.5A2.05,2.05,0,0,1,366.15,594.37Z" transform="translate(-2.54)" style="fill:#fff"/><path d="M373,617.58a.17.17,0,0,1-.19-.19v-2.78c0-.1.07-.15.19-.15h16.75q-1.43-1.47-2.46-7.33a11,11,0,0,0-1.66-4.84,3.87,3.87,0,0,0-3.26-1.39,11.88,11.88,0,0,0-5.67,1.6l-1.35-2.75a10.92,10.92,0,0,1,3.39-1.55,15.26,15.26,0,0,1,3.67-.43,8.22,8.22,0,0,1,4,.88,6.42,6.42,0,0,1,2.55,2.61,15.47,15.47,0,0,1,1.44,5,30.28,30.28,0,0,0,1.29,5.52,7,7,0,0,0,1.65,2.81v3Z" transform="translate(-2.54)" style="fill:#fff"/><path d="M412.77,622.7a8.67,8.67,0,0,1,1.41-4.72,16.68,16.68,0,0,1,4.52-4.4,28.64,28.64,0,0,1-4.71-6.07,17.55,17.55,0,0,1-2.36-6.22,16.3,16.3,0,0,1,4.81-3.22,13.57,13.57,0,0,1,5.47-1.18,16,16,0,0,1,5,.81,15.53,15.53,0,0,1,4.36,2.13,16.9,16.9,0,0,1-1.89,7.41,19.1,19.1,0,0,1-5.22,6.3,11,11,0,0,0,4.42.92h4.73c.13,0,.19,0,.19.15v2.78a.17.17,0,0,1-.19.19H428.7a13.44,13.44,0,0,1-3.59-.6,17.58,17.58,0,0,1-3.76-1.53,14.11,14.11,0,0,0-3.91,3.47,6.06,6.06,0,0,0-1.12,3.47,4.59,4.59,0,0,0,1.45,3.76,7,7,0,0,0,4.52,1.2,21.48,21.48,0,0,0,2.95-.2l2.79-.44.44,2.75q-2.82.62-4.35.78a27.76,27.76,0,0,1-3.24.18,8.39,8.39,0,0,1-5.95-2A7.44,7.44,0,0,1,412.77,622.7Zm2.61-20.36a15.1,15.1,0,0,0,2.1,4.89,19.45,19.45,0,0,0,3.91,4.51,15.65,15.65,0,0,0,4.51-4.59,12.31,12.31,0,0,0,1.75-5.64,11,11,0,0,0-12.27.83Z" transform="translate(-2.54)" style="fill:#fff"/><path d="M432.87,617.58a.17.17,0,0,1-.19-.19v-2.78c0-.1.07-.15.19-.15h6.34V598.18h3.47v16.28h5.85c.13,0,.19,0,.19.15v2.78a.17.17,0,0,1-.19.19Zm4.81,8a2.22,2.22,0,0,1-1.55-.56,3,3,0,0,1,0-3.68,2.27,2.27,0,0,1,1.55-.56,2.08,2.08,0,0,1,1.58.61,2.46,2.46,0,0,1,.59,1.79,2.51,2.51,0,0,1-.58,1.78A2.06,2.06,0,0,1,437.68,625.59Zm6.75,0a2.08,2.08,0,0,1-1.6-.62,3,3,0,0,1,0-3.56,2.12,2.12,0,0,1,1.61-.62,2.05,2.05,0,0,1,1.62.65,2.93,2.93,0,0,1,0,3.5A2,2,0,0,1,444.43,625.59Z" transform="translate(-2.54)" style="fill:#fff"/><path d="M448.15,617.58a.17.17,0,0,1-.19-.19v-2.78c0-.1.06-.15.19-.15H453a19.78,19.78,0,0,1-1.45-6.84,14,14,0,0,1,1.41-6.37,11.1,11.1,0,0,1,3.28-2,10.53,10.53,0,0,1,3.85-.73,8.16,8.16,0,0,1,4.29,1.11,7.19,7.19,0,0,1,2.84,3.13,10.3,10.3,0,0,1,1,4.61,13.23,13.23,0,0,1-.82,4.71,4.77,4.77,0,0,0,1.88,1.82,6.21,6.21,0,0,0,2.73.51h.19q.21,0,.21.15v2.78c0,.13-.07.19-.21.19H472a9.64,9.64,0,0,1-3.55-.58,8.12,8.12,0,0,1-2.82-2,7.74,7.74,0,0,1-2.89,2,9.58,9.58,0,0,1-3.44.63Zm6.91-10.64a20,20,0,0,0,.32,3.64,20.57,20.57,0,0,0,1.16,3.88h2.77a4.73,4.73,0,0,0,4-1.82,8.48,8.48,0,0,0,1.4-5.25,6.2,6.2,0,0,0-1.35-4.13,4.13,4.13,0,0,0-3.27-1.6,6.79,6.79,0,0,0-2.43.45,8,8,0,0,0-2.13,1.19,6.44,6.44,0,0,0-.4,1.71C455.08,605.59,455.06,606.23,455.06,606.94Z" transform="translate(-2.54)" style="fill:#fff"/><path d="M471.82,617.58a.17.17,0,0,1-.19-.19v-2.78c0-.1.07-.15.19-.15h16.75c-.95-1-1.78-3.42-2.46-7.33a11.15,11.15,0,0,0-1.66-4.84,3.88,3.88,0,0,0-3.26-1.39,11.88,11.88,0,0,0-5.67,1.6l-1.35-2.75a11,11,0,0,1,3.38-1.55,15.41,15.41,0,0,1,3.68-.43,8.28,8.28,0,0,1,4,.88,6.42,6.42,0,0,1,2.55,2.61,15.47,15.47,0,0,1,1.44,5,30.28,30.28,0,0,0,1.29,5.52,7,7,0,0,0,1.65,2.81v3Zm9.29,8a2.08,2.08,0,0,1-1.6-.62,2.47,2.47,0,0,1-.59-1.78,2.51,2.51,0,0,1,.58-1.78,2.11,2.11,0,0,1,1.61-.62,2.05,2.05,0,0,1,1.62.65,3,3,0,0,1,0,3.5A2,2,0,0,1,481.11,625.59Z" transform="translate(-2.54)" style="fill:#fff"/><path d="M243.66,478.53a58.88,58.88,0,0,1-4.83,23.93,61,61,0,0,1-13.07,19.06,62,62,0,0,1-11.1,8.58,36.38,36.38,0,0,1-4.83.33,37.29,37.29,0,0,1-1.61-74.55c.54,0,1.07,0,1.61,0a37.24,37.24,0,0,1,33.79,21.53A11.34,11.34,0,0,1,243.66,478.53Z" transform="translate(-2.54)" style="fill:#50b848;opacity:0.42;mix-blend-mode:multiply"/><path d="M253.08,481.58a62.18,62.18,0,0,0-4.58-23.27,59.37,59.37,0,0,0-31.89-32.55A57.73,57.73,0,0,0,193.26,421a55.63,55.63,0,0,0-20.8,3.92,61.16,61.16,0,0,0-17.53,10.81,59.84,59.84,0,0,0-12.88,16.34,63.55,63.55,0,0,0-6.89,20.38,39.61,39.61,0,0,0-8.46,1,53.58,53.58,0,0,0-9,2.93,52.55,52.55,0,0,0-8.46,4.67,36.53,36.53,0,0,0-7.18,6.35,54.13,54.13,0,0,0-11.06,20c-2.35,7.63-3.5,16.75-3.5,27.23v30.66h9.82a17.74,17.74,0,0,0,17.74-17.74V535a78.37,78.37,0,0,1,1.28-14.73A27.85,27.85,0,0,1,121,508.77c3.42-4.82,8.79-7.55,16.13-8.08a60,60,0,0,0,8.21,16.87A60.8,60.8,0,0,0,158.1,531a59.93,59.93,0,0,0,16.34,8.87,55.22,55.22,0,0,0,18.82,3.22,57.5,57.5,0,0,0,22.85-4.62,58.71,58.71,0,0,0,8-4.13,62,62,0,0,0,11.1-8.58,61.16,61.16,0,0,0,13.08-19.06,59.08,59.08,0,0,0,4.82-23.93A11.24,11.24,0,0,0,253.08,481.58Zm-30,13.78a30.48,30.48,0,0,1-6.89,10.28,32.29,32.29,0,0,1-10.32,6.76,33.21,33.21,0,0,1-12.62,2.44,28.63,28.63,0,0,1-7.35-.91,27.07,27.07,0,0,1-5.07-1.65,31.47,31.47,0,0,1-10-6.85,31.09,31.09,0,0,1-6.6-10.27,34.54,34.54,0,0,1-2.35-12.83,35.48,35.48,0,0,1,2.35-12.92,33,33,0,0,1,6.52-10.48,31.1,31.1,0,0,1,9.82-7.05,30.26,30.26,0,0,1,12.63-2.64,32.62,32.62,0,0,1,13,2.55,31.31,31.31,0,0,1,10.23,6.94,15.55,15.55,0,0,1,1.2,1.36,30.13,30.13,0,0,1,5.53,9.16,35.53,35.53,0,0,1,2.35,13.08A33.5,33.5,0,0,1,223.09,495.36Z" transform="translate(-2.54)" style="fill:#fff"/><path d="M360.42,365.49h-8.94a17,17,0,0,0-17,17V492.66H300.1v-52.5h-8.94a17,17,0,0,0-17,17v58.66q0,9.86-3.05,14.22t-10.83,4.36a42.64,42.64,0,0,1-5.73-.38,61,61,0,0,1-6.48-1.33L250,559.18a35,35,0,0,0,5.92,1.23,53.28,53.28,0,0,0,7.22.48q18.31,0,27-9.86t9.81-31.84h60.5V392a10.16,10.16,0,0,0,10.16-10.16v-6.22A10.16,10.16,0,0,0,360.42,365.49Z" transform="translate(-2.54)" style="fill:#fff"/><path d="M485.25,541a9.53,9.53,0,0,1-9.53-9.53c0-108.5-80.72-202.74-187.78-219.22a9.53,9.53,0,0,1,2.9-18.83C407.1,311.34,494.78,413.68,494.78,531.5A9.53,9.53,0,0,1,485.25,541Z" transform="translate(-2.54)" style="fill:#fff"/><path d="M21.26,541a9.53,9.53,0,0,0,9.53-9.53c0-108.5,80.73-202.74,187.78-219.22a9.53,9.53,0,1,0-2.9-18.83C99.41,311.34,11.73,413.68,11.73,531.5A9.53,9.53,0,0,0,21.26,541Z" transform="translate(-2.54)" style="fill:#fff"/><circle cx="248.66" cy="250.25" r="43.08" style="fill:#fff"/><path d="M339.3,215.11a8,8,0,0,1-2.49-.4,7.94,7.94,0,0,1-5.05-10l13.9-42.17A19.42,19.42,0,0,0,342.85,145l-17.31-23.43a35.1,35.1,0,0,1-1.67-39.41l27-43.85a7.94,7.94,0,0,1,13.52,8.32l-27,43.85a19.28,19.28,0,0,0,.91,21.65l17.31,23.44a35.3,35.3,0,0,1,5.12,32l-13.9,42.17A7.94,7.94,0,0,1,339.3,215.11Z" transform="translate(-2.54)" style="fill:#fff"/><path d="M177.06,209.16a7.85,7.85,0,0,1-3.76-1,7.94,7.94,0,0,1-3.22-10.76l19.2-35.54a19.38,19.38,0,0,0-3-16.94L169,121.52a35.1,35.1,0,0,1-1.67-39.41l27-43.85a7.94,7.94,0,0,1,13.52,8.32l-27,43.85a19.29,19.29,0,0,0,.92,21.66L199,135.52a35.27,35.27,0,0,1,5.13,32l-.56,1.29L184.05,205A7.93,7.93,0,0,1,177.06,209.16Z" transform="translate(-2.54)" style="fill:#fff"/><path d="M253.9,169.17A7.93,7.93,0,0,1,247.19,157l26.05-41.27A19.37,19.37,0,0,0,270.17,99L252.86,75.58a35.08,35.08,0,0,1-1.66-39.4l19.93-32.4a7.94,7.94,0,0,1,13.53,8.32L264.72,44.5a19.28,19.28,0,0,0,.92,21.65l17.3,23.43a35.27,35.27,0,0,1,5.12,32l-.82,1.75-26.62,42.17A7.93,7.93,0,0,1,253.9,169.17Z" transform="translate(-2.54)" style="fill:#fff"/><path d="M279.86,428.05A20.52,20.52,0,0,0,293,423.59q5.61-4.44,5.61-13.13a16,16,0,0,0-5.39-12.55,21.06,21.06,0,0,0-26.79,0,16,16,0,0,0-5.39,12.55q0,8.69,5.62,13.13A20.47,20.47,0,0,0,279.86,428.05Z" transform="translate(-2.54)" style="fill:#fff"/></g></g></g></svg>