<svg xmlns="http://www.w3.org/2000/svg" viewBox="0 0 633.59 602.23"><g id="Layer_2" data-name="Layer 2"><g id="Layer_1-2" data-name="Layer 1"><ellipse cx="258.69" cy="461.76" rx="37.87" ry="37.84" style="fill:#f2f5d1;opacity:0.29"/><path d="M246,512.42a56,56,0,0,1-19.09-3.27,61.62,61.62,0,0,1-16.61-9,60.93,60.93,0,0,1-13-13.61,60.3,60.3,0,0,1-8.3-17.09q-11.2.81-16.4,8.18a28.52,28.52,0,0,0-4.7,11.67,81.08,81.08,0,0,0-1.3,14.94v12.71a18,18,0,0,1-18,18h-10V503.82q0-16,3.6-27.63a54.28,54.28,0,0,1,11.2-20.26,36.63,36.63,0,0,1,7.3-6.46,53.23,53.23,0,0,1,8.6-4.71,51.65,51.65,0,0,1,9.1-3,39.85,39.85,0,0,1,8.6-1,65.18,65.18,0,0,1,7-20.68,59.77,59.77,0,0,1,13.1-16.58,61.91,61.91,0,0,1,17.8-11,55.93,55.93,0,0,1,21.1-4,59.09,59.09,0,0,1,23.71,4.81,60.41,60.41,0,0,1,32.4,33.06,64.81,64.81,0,0,1,4.7,24.78,59.55,59.55,0,0,1-4.9,24.25,61,61,0,0,1-13.3,19.35,62.94,62.94,0,0,1-19.4,12.89A58.37,58.37,0,0,1,246,512.42Zm-12.6-31.22a30.82,30.82,0,0,0,12.6,2.56,33.43,33.43,0,0,0,12.81-2.45,32.37,32.37,0,0,0,10.5-6.86,31,31,0,0,0,7-10.44,34.29,34.29,0,0,0,2.5-13.2,36.23,36.23,0,0,0-2.4-13.31,31.58,31.58,0,0,0-6.8-10.65,32.25,32.25,0,0,0-10.4-7.06A33.46,33.46,0,0,0,246,417.23a30.5,30.5,0,0,0-12.79,2.66,31.59,31.59,0,0,0-10,7.17,33.07,33.07,0,0,0-6.6,10.64,35.74,35.74,0,0,0-2.4,13.11,34.8,34.8,0,0,0,2.4,13,31.31,31.31,0,0,0,6.7,10.44A31.87,31.87,0,0,0,233.39,481.2Z" transform="translate(-3.28)" style="fill:#b2d236"/><path d="M415.75,332.24h-9.08a17.21,17.21,0,0,0-17.22,17.21V461.28H354.5V408h-9.08a17.22,17.22,0,0,0-17.22,17.21v59.53q0,10-3.1,14.42t-11,4.43a42.49,42.49,0,0,1-5.83-.39,60.62,60.62,0,0,1-6.58-1.34l1.88,26.92a37.2,37.2,0,0,0,6,1.24,55,55,0,0,0,7.33.49q18.6,0,27.43-10t10-32.31h61.44v-129a10.31,10.31,0,0,0,10.32-10.31v-6.3A10.31,10.31,0,0,0,415.75,332.24Z" transform="translate(-3.28)" style="fill:#b2d236"/><path d="M542.52,510.36a9.67,9.67,0,0,1-9.67-9.67c0-110.1-82-205.73-190.7-222.45a9.67,9.67,0,1,1,3-19.11c118.06,18.16,207.1,122,207.1,241.56A9.67,9.67,0,0,1,542.52,510.36Z" transform="translate(-3.28)" style="fill:#529546"/><path d="M71.34,510.36A9.67,9.67,0,0,0,81,500.69c0-110.1,82-205.73,190.7-222.45a9.67,9.67,0,1,0-2.95-19.11c-118.06,18.16-207.1,122-207.1,241.56A9.67,9.67,0,0,0,71.34,510.36Z" transform="translate(-3.28)" style="fill:#529546"/><ellipse cx="301.55" cy="215.3" rx="43.75" ry="43.71" style="fill:#529546"/><path d="M363.82,167.93a6.26,6.26,0,0,1-1.94-.32,6.19,6.19,0,0,1-3.95-7.82l10.86-32.92a15.13,15.13,0,0,0-2.2-13.71l-13.52-18.3a27.36,27.36,0,0,1-1.3-30.76l21.08-34.23a6.2,6.2,0,0,1,10.57,6.49L362.33,70.6a15,15,0,0,0,.72,16.9l13.52,18.29a27.54,27.54,0,0,1,4,25l-10.86,32.92A6.22,6.22,0,0,1,363.82,167.93Z" transform="translate(-3.28)" style="fill:#529546"/><path d="M237.07,163.28a6.12,6.12,0,0,1-2.94-.75,6.19,6.19,0,0,1-2.51-8.4l15-27.74a15.11,15.11,0,0,0-2.34-13.23l-13.52-18.3a27.36,27.36,0,0,1-1.3-30.76l21.08-34.23a6.2,6.2,0,0,1,10.56,6.49L240,70.6a15.05,15.05,0,0,0,.71,16.9l13.53,18.29a27.54,27.54,0,0,1,4,25l-.44,1L242.53,160A6.2,6.2,0,0,1,237.07,163.28Z" transform="translate(-3.28)" style="fill:#529546"/><path d="M297.1,132.06a6.12,6.12,0,0,1-3.3-.95,6.19,6.19,0,0,1-1.94-8.55l20.35-32.22a15.11,15.11,0,0,0-2.4-13L296.29,59A27.36,27.36,0,0,1,295,28.24L310.57,3a6.2,6.2,0,0,1,10.56,6.5L305.56,34.74a15,15,0,0,0,.71,16.9l13.52,18.29a27.54,27.54,0,0,1,4,25l-.64,1.37-20.8,32.91A6.19,6.19,0,0,1,297.1,132.06Z" transform="translate(-3.28)" style="fill:#529546"/><path d="M334,395.72a20.87,20.87,0,0,0,13.38-4.53q5.69-4.51,5.69-13.33a16.27,16.27,0,0,0-5.46-12.73,21.42,21.42,0,0,0-27.22,0,16.27,16.27,0,0,0-5.46,12.73q0,8.82,5.7,13.33A20.82,20.82,0,0,0,334,395.72Z" transform="translate(-3.28)" style="fill:#b2d236"/><path d="M16.12,585.63q-6.08,0-9.46-3.15t-3.38-8.8c0-4.08,1.25-7.28,3.76-9.63s5.86-3.51,10.09-3.51h3.33v-3.26h4.32v24.31h5.75c.17,0,.25.06.25.2v3.59a.22.22,0,0,1-.25.25Zm4.34-4v-17H17.28q-4.55,0-7,2.39a8.81,8.81,0,0,0-2.48,6.68,7.77,7.77,0,0,0,2.14,5.91,8.52,8.52,0,0,0,6.1,2.05Zm-7-29.08a2.91,2.91,0,0,1-2-.73,3.81,3.81,0,0,1,0-4.75,2.92,2.92,0,0,1,2-.74,2.71,2.71,0,0,1,2.05.8,3.2,3.2,0,0,1,.77,2.31,3.25,3.25,0,0,1-.76,2.3A2.67,2.67,0,0,1,13.5,552.51Zm8.74,0a2.71,2.71,0,0,1-2.07-.81,3.21,3.21,0,0,1-.77-2.3,3.27,3.27,0,0,1,.75-2.3,2.73,2.73,0,0,1,2.09-.81,2.68,2.68,0,0,1,2.1.85,3.82,3.82,0,0,1,0,4.52A2.64,2.64,0,0,1,22.24,552.51Z" transform="translate(-3.28)" style="fill:#6ca044"/><path d="M30,585.63a.23.23,0,0,1-.25-.25v-3.59c0-.14.09-.2.25-.2h6.17V546.32H40.5v25.34a21.64,21.64,0,0,1,6-8.72,12.41,12.41,0,0,1,8-2.93q5.73,0,8.65,3.19t2.93,9.95v12.48Zm31.74-4v-8.21q0-4.78-2-7c-1.36-1.5-3.42-2.25-6.16-2.25q-7.79,0-13.09,13.24v4.25Zm-8.34-26a2.71,2.71,0,0,1-2.07-.81,3.23,3.23,0,0,1-.77-2.3,3.27,3.27,0,0,1,.75-2.3,2.73,2.73,0,0,1,2.09-.81,2.64,2.64,0,0,1,2.1.85,3.82,3.82,0,0,1,0,4.52A2.68,2.68,0,0,1,53.44,555.62Z" transform="translate(-3.28)" style="fill:#6ca044"/><path d="M93.43,586.87q0,5.28-3.05,8.23c-2,2-4.91,3-8.63,3a16,16,0,0,1-9.11-2.65l2-3.47A21.21,21.21,0,0,0,78,593.42a11.61,11.61,0,0,0,3.83.6,7.4,7.4,0,0,0,5.38-1.89,6.63,6.63,0,0,0,2-5v-1.49h-5q-5.39,0-8.33-3c-2-2-3-5-3-8.77a12.78,12.78,0,0,1,3.77-9.69q3.78-3.6,10.1-3.6h6.62v21.05h4.14c.17,0,.25.06.25.2v3.59a.22.22,0,0,1-.25.25H93.43Zm-4.3-5.28v-17H87A9.67,9.67,0,0,0,80,567a9,9,0,0,0-2.5,6.8c0,2.7.57,4.67,1.71,5.93a6.71,6.71,0,0,0,5.2,1.88Z" transform="translate(-3.28)" style="fill:#6ca044"/><path d="M97.08,585.63a.23.23,0,0,1-.25-.25v-3.59c0-.14.09-.2.25-.2h7.68a10,10,0,0,1-2-3.62,13.73,13.73,0,0,1-.67-4.19q0-6.16,3.74-9.7T116,560.54h6.61v21.05H128a.24.24,0,0,1,.22.12l0,.13v3.59c0,.13-.09.2-.25.2Zm21.23-4v-17h-2.18a9.56,9.56,0,0,0-7,2.44,9,9,0,0,0-2.5,6.78q0,7.8,6.91,7.81Zm-4.87-26a2.71,2.71,0,0,1-2.07-.81,3.22,3.22,0,0,1-.76-2.3,3.27,3.27,0,0,1,.75-2.3,2.7,2.7,0,0,1,2.08-.81,2.62,2.62,0,0,1,2.1.85,3.82,3.82,0,0,1,0,4.52A2.65,2.65,0,0,1,113.44,555.62Z" transform="translate(-3.28)" style="fill:#6ca044"/><path d="M127.46,585.63a.22.22,0,0,1-.24-.25v-3.59c0-.14.08-.2.24-.2h21.68q-1.95-2-3.19-9.48c-.48-2.93-1.19-5-2.15-6.22a5,5,0,0,0-4.22-1.84,15.46,15.46,0,0,0-7.33,2.08l-1.75-3.57a14.23,14.23,0,0,1,4.38-2,19.45,19.45,0,0,1,4.75-.56,10.59,10.59,0,0,1,5.16,1.14,8.31,8.31,0,0,1,3.3,3.37,20.31,20.31,0,0,1,1.86,6.41q1.16,8.1,3.65,10.66H157c.16,0,.24.06.24.2v3.59a.22.22,0,0,1-.24.25Z" transform="translate(-3.28)" style="fill:#6ca044"/><path d="M156.49,585.63a.23.23,0,0,1-.25-.25v-3.59c0-.14.09-.2.25-.2h6.27a25.74,25.74,0,0,1-1.88-8.84,18,18,0,0,1,1.83-8.24A14.83,14.83,0,0,1,167,562a13.59,13.59,0,0,1,5-.93,10.58,10.58,0,0,1,5.56,1.43,9.37,9.37,0,0,1,3.67,4,13.35,13.35,0,0,1,1.29,6,15.81,15.81,0,0,1-1.45,7,10.5,10.5,0,0,1-4.07,4.53,11.45,11.45,0,0,1-6,1.58Zm8.94-13.77a24.79,24.79,0,0,0,1.92,9.73h3.58a6.14,6.14,0,0,0,5.18-2.35c1.21-1.57,1.81-3.83,1.81-6.8a8,8,0,0,0-1.74-5.33,5.34,5.34,0,0,0-4.24-2.07,8.73,8.73,0,0,0-3.14.58,10.29,10.29,0,0,0-2.76,1.54,7.87,7.87,0,0,0-.51,2.21C165.46,570.12,165.43,571,165.43,571.86Z" transform="translate(-3.28)" style="fill:#6ca044"/><path d="M219.06,585.63c-4,0-7.2-1-9.45-3.15s-3.38-5-3.38-8.8c0-4.08,1.25-7.28,3.75-9.63s5.87-3.51,10.1-3.51h3.33v-3.26h4.32v24.31h5.75c.16,0,.25.06.25.2v3.59a.23.23,0,0,1-.25.25Zm4.35-4v-17h-3.19c-3,0-5.37.8-7,2.39a8.85,8.85,0,0,0-2.48,6.68,7.77,7.77,0,0,0,2.15,5.91,8.49,8.49,0,0,0,6.09,2.05Zm-7-29.08a2.91,2.91,0,0,1-2-.73,3.81,3.81,0,0,1,0-4.75,2.92,2.92,0,0,1,2-.74,2.73,2.73,0,0,1,2.05.8,3.2,3.2,0,0,1,.76,2.31,3.25,3.25,0,0,1-.75,2.3A2.67,2.67,0,0,1,216.45,552.51Zm8.73,0a2.71,2.71,0,0,1-2.07-.81,3.21,3.21,0,0,1-.76-2.3,3.27,3.27,0,0,1,.75-2.3,2.7,2.7,0,0,1,2.08-.81,2.65,2.65,0,0,1,2.1.85,3.82,3.82,0,0,1,0,4.52A2.62,2.62,0,0,1,225.18,552.51Z" transform="translate(-3.28)" style="fill:#6ca044"/><path d="M233,585.63a.22.22,0,0,1-.24-.25v-3.59c0-.14.08-.2.24-.2h8.2V560.54h4.49v21.05h7.58c.16,0,.25.06.25.2v3.59a.23.23,0,0,1-.25.25ZM239.21,596a2.94,2.94,0,0,1-2-.74,3.11,3.11,0,0,1,2-5.48,2.7,2.7,0,0,1,2,.8,3.2,3.2,0,0,1,.77,2.31,3.27,3.27,0,0,1-.75,2.3A2.69,2.69,0,0,1,239.21,596Zm8.73,0a2.71,2.71,0,0,1-2.07-.81,3.84,3.84,0,0,1,0-4.6,2.69,2.69,0,0,1,2.08-.81,2.62,2.62,0,0,1,2.1.85,3.82,3.82,0,0,1,0,4.52A2.65,2.65,0,0,1,247.94,596Z" transform="translate(-3.28)" style="fill:#6ca044"/><path d="M252.76,585.63a.22.22,0,0,1-.25-.25v-3.59c0-.14.08-.2.25-.2H274v-9.53c0-2.57-.75-4.47-2.27-5.68s-3.86-1.82-7-1.82h-8.59v-4.22a30.67,30.67,0,0,1,4.49-6.86,38.42,38.42,0,0,1,6.41-6,29.77,29.77,0,0,1,6.89-4l1.61,3.94a32.77,32.77,0,0,0-9.08,5.67,22.89,22.89,0,0,0-6.13,7.41h4.4q6.61,0,10.1,2.78a9.61,9.61,0,0,1,3.5,8v10.29h6.56c.18,0,.28.06.28.2v3.59c0,.16-.1.25-.28.25Z" transform="translate(-3.28)" style="fill:#6ca044"/><path d="M284.4,585.63a.23.23,0,0,1-.25-.25v-3.59c0-.14.09-.2.25-.2h6.66V546.32h4.5v35.27h6.59c.16,0,.24.06.24.2v3.59a.22.22,0,0,1-.24.25Z" transform="translate(-3.28)" style="fill:#6ca044"/><path d="M301.63,585.63a.22.22,0,0,1-.25-.25v-3.59c0-.14.08-.2.25-.2h6.27a25.74,25.74,0,0,1-1.88-8.84,18,18,0,0,1,1.83-8.24,14.78,14.78,0,0,1,4.24-2.53,13.68,13.68,0,0,1,5-.93,10.52,10.52,0,0,1,5.55,1.43,9.34,9.34,0,0,1,3.68,4,13.35,13.35,0,0,1,1.29,6,16.86,16.86,0,0,1-1.07,6.09,6.3,6.3,0,0,0,2.44,2.35,8,8,0,0,0,3.54.66h.24c.19,0,.28.06.28.2v3.59c0,.16-.09.25-.28.25h-.24a12.25,12.25,0,0,1-4.59-.76,10.38,10.38,0,0,1-3.66-2.6,10,10,0,0,1-3.74,2.54,12.2,12.2,0,0,1-4.45.82Zm8.93-13.77a24.57,24.57,0,0,0,1.93,9.73h3.58a6.15,6.15,0,0,0,5.18-2.35c1.2-1.57,1.8-3.83,1.8-6.8a8,8,0,0,0-1.74-5.33,5.34,5.34,0,0,0-4.23-2.07,8.82,8.82,0,0,0-3.15.58,10.38,10.38,0,0,0-2.75,1.54,8.26,8.26,0,0,0-.52,2.21C310.6,570.12,310.56,571,310.56,571.86Z" transform="translate(-3.28)" style="fill:#6ca044"/><path d="M332.26,585.63a.23.23,0,0,1-.25-.25v-3.59c0-.14.09-.2.25-.2h6.67V546.32h4.49v39.31Z" transform="translate(-3.28)" style="fill:#6ca044"/><path d="M353.54,546.32H358v39.31h-4.49Z" transform="translate(-3.28)" style="fill:#6ca044"/><path d="M395.52,598.06a11.54,11.54,0,0,1-8.76-3.36q-3.21-3.36-3.21-9.12a34.73,34.73,0,0,1,2.08-12.2h4.19a36.28,36.28,0,0,0-1.73,11.9,8.93,8.93,0,0,0,2.19,6.46,8.13,8.13,0,0,0,6.16,2.28h10.22c3.29,0,5.66-.66,7.12-2S416,588.73,416,586v-.35H411.3q-5.61,0-8.56-3c-2-2-2.95-5-2.95-8.77q0-6.14,3.78-9.71t10.07-3.58h6.62v25.39q0,12.14-12.79,12.13ZM416,581.59v-17h-2.17a9.67,9.67,0,0,0-7,2.42,9,9,0,0,0-2.5,6.8c0,2.7.57,4.67,1.71,5.93a6.72,6.72,0,0,0,5.2,1.88Zm-8.54-26a2.92,2.92,0,0,1-2-.74,3.81,3.81,0,0,1,0-4.75,3,3,0,0,1,2-.73,2.71,2.71,0,0,1,2.05.8,3.2,3.2,0,0,1,.77,2.31,3.27,3.27,0,0,1-.76,2.3A2.67,2.67,0,0,1,407.42,555.62Zm8.74,0a2.71,2.71,0,0,1-2.07-.81,3.23,3.23,0,0,1-.77-2.3,3.27,3.27,0,0,1,.75-2.3,2.73,2.73,0,0,1,2.09-.81,2.64,2.64,0,0,1,2.1.85,3.82,3.82,0,0,1,0,4.52A2.68,2.68,0,0,1,416.16,555.62Z" transform="translate(-3.28)" style="fill:#6ca044"/><path d="M448.62,586.87q0,5.28-3.05,8.23t-8.63,3a16,16,0,0,1-9.11-2.65l2-3.47a20.91,20.91,0,0,0,3.36,1.48,11.55,11.55,0,0,0,3.82.6,7.4,7.4,0,0,0,5.38-1.89,6.63,6.63,0,0,0,1.95-5v-1.49h-5c-3.59,0-6.36-1-8.33-3s-2.95-5-2.95-8.77a12.75,12.75,0,0,1,3.78-9.69q3.76-3.6,10.09-3.6h6.62v21.05h4.14c.17,0,.25.06.25.2v3.59a.22.22,0,0,1-.25.25h-4.14Zm-4.3-5.28v-17h-2.17a9.68,9.68,0,0,0-7,2.42,9,9,0,0,0-2.5,6.8c0,2.7.57,4.67,1.71,5.93a6.72,6.72,0,0,0,5.2,1.88Z" transform="translate(-3.28)" style="fill:#6ca044"/><path d="M452.27,585.63a.23.23,0,0,1-.25-.25v-3.59c0-.14.09-.2.25-.2H460A10,10,0,0,1,458,578a13.73,13.73,0,0,1-.67-4.19q0-6.16,3.74-9.7t10.11-3.54h6.61v21.05h5.36a.24.24,0,0,1,.22.12l0,.13v3.59c0,.13-.09.2-.25.2Zm21.23-4v-17h-2.17a9.57,9.57,0,0,0-7,2.44,9,9,0,0,0-2.5,6.78q0,7.8,6.91,7.81Zm-8.39-26a3,3,0,0,1-2-.74,3.11,3.11,0,0,1,2-5.48,2.7,2.7,0,0,1,2,.8,3.16,3.16,0,0,1,.77,2.31,3.27,3.27,0,0,1-.75,2.3A2.67,2.67,0,0,1,465.11,555.62Zm8.73,0a2.71,2.71,0,0,1-2.07-.81,3.23,3.23,0,0,1-.77-2.3,3.27,3.27,0,0,1,.76-2.3,2.7,2.7,0,0,1,2.08-.81,2.62,2.62,0,0,1,2.1.85,3.82,3.82,0,0,1,0,4.52A2.65,2.65,0,0,1,473.84,555.62Z" transform="translate(-3.28)" style="fill:#6ca044"/><path d="M482.66,585.63a.22.22,0,0,1-.25-.25v-3.59c0-.14.08-.2.25-.2h21.67c-1.24-1.27-2.3-4.42-3.19-9.48-.49-3-1.21-5.07-2.14-6.26a5,5,0,0,0-4.22-1.8,15.46,15.46,0,0,0-7.34,2.08l-1.75-3.57a14.23,14.23,0,0,1,4.38-2,19.45,19.45,0,0,1,4.75-.56,10.59,10.59,0,0,1,5.16,1.14,8.25,8.25,0,0,1,3.3,3.37,20.31,20.31,0,0,1,1.86,6.41,40.09,40.09,0,0,0,1.67,7.13,9.21,9.21,0,0,0,2.13,3.63v3.94Z" transform="translate(-3.28)" style="fill:#6ca044"/><path d="M534.17,592.25a11.13,11.13,0,0,1,1.83-6.1,21.24,21.24,0,0,1,5.85-5.7,37,37,0,0,1-6.1-7.84,22.8,22.8,0,0,1-3.06-8.05,21.15,21.15,0,0,1,6.23-4.17,17.49,17.49,0,0,1,7.07-1.51,21,21,0,0,1,6.42,1,20.23,20.23,0,0,1,5.65,2.76,21.81,21.81,0,0,1-2.44,9.58,24.83,24.83,0,0,1-6.76,8.15,14.23,14.23,0,0,0,5.72,1.19h6.12c.17,0,.25.06.25.2v3.59a.22.22,0,0,1-.25.25h-5.92a17.28,17.28,0,0,1-4.64-.78,23.93,23.93,0,0,1-4.86-2,17.78,17.78,0,0,0-5.06,4.48,7.84,7.84,0,0,0-1.46,4.48,6,6,0,0,0,1.88,4.87q1.88,1.54,5.85,1.55a27.62,27.62,0,0,0,3.82-.26c1.22-.18,2.42-.37,3.61-.57l.56,3.56c-2.43.52-4.31.86-5.62,1a37.21,37.21,0,0,1-4.2.23A10.81,10.81,0,0,1,537,599.6,9.57,9.57,0,0,1,534.17,592.25Zm3.38-26.33a19.35,19.35,0,0,0,2.72,6.32,24.84,24.84,0,0,0,5.06,5.84,20.44,20.44,0,0,0,5.83-5.94,16,16,0,0,0,2.26-7.3,14.21,14.21,0,0,0-15.87,1.08Z" transform="translate(-3.28)" style="fill:#6ca044"/><path d="M560.19,585.63a.22.22,0,0,1-.25-.25v-3.59c0-.14.08-.2.25-.2h8.19V560.54h4.49v21.05h7.58c.17,0,.25.06.25.2v3.59a.22.22,0,0,1-.25.25ZM566.41,596a3,3,0,0,1-2-.74,3.11,3.11,0,0,1,2-5.48,2.74,2.74,0,0,1,2.05.8,3.9,3.9,0,0,1,0,4.61A2.69,2.69,0,0,1,566.41,596Zm8.73,0a2.71,2.71,0,0,1-2.07-.81,3.22,3.22,0,0,1-.76-2.3,3.27,3.27,0,0,1,.75-2.3,2.69,2.69,0,0,1,2.08-.81,2.62,2.62,0,0,1,2.1.85,3.82,3.82,0,0,1,0,4.52A2.65,2.65,0,0,1,575.14,596Z" transform="translate(-3.28)" style="fill:#6ca044"/><path d="M580,585.63a.22.22,0,0,1-.25-.25v-3.59c0-.14.08-.2.25-.2h6.27a25.74,25.74,0,0,1-1.88-8.84,18,18,0,0,1,1.83-8.24,14.78,14.78,0,0,1,4.24-2.53,13.68,13.68,0,0,1,5-.93,10.52,10.52,0,0,1,5.55,1.43,9.34,9.34,0,0,1,3.68,4,13.35,13.35,0,0,1,1.28,6,16.86,16.86,0,0,1-1.06,6.09,6.35,6.35,0,0,0,2.43,2.35,8.12,8.12,0,0,0,3.55.66h.24c.18,0,.27.06.27.2v3.59c0,.16-.09.25-.27.25h-.24a12.25,12.25,0,0,1-4.59-.76,10.38,10.38,0,0,1-3.66-2.6,10,10,0,0,1-3.74,2.54,12.24,12.24,0,0,1-4.45.82Zm8.93-13.77a26.28,26.28,0,0,0,.42,4.71,25.72,25.72,0,0,0,1.51,5h3.58a6.15,6.15,0,0,0,5.18-2.35c1.2-1.57,1.8-3.83,1.8-6.8a8,8,0,0,0-1.74-5.33,5.34,5.34,0,0,0-4.23-2.07,8.82,8.82,0,0,0-3.15.58,10.23,10.23,0,0,0-2.75,1.54,8.26,8.26,0,0,0-.52,2.21C588.93,570.12,588.89,571,588.89,571.86Z" transform="translate(-3.28)" style="fill:#6ca044"/><path d="M610.59,585.63a.22.22,0,0,1-.25-.25v-3.59c0-.14.08-.2.25-.2h21.67c-1.23-1.27-2.29-4.42-3.18-9.48-.5-3-1.21-5.07-2.15-6.26a5,5,0,0,0-4.22-1.8,15.42,15.42,0,0,0-7.33,2.08l-1.75-3.57a14,14,0,0,1,4.38-2,19.39,19.39,0,0,1,4.75-.56,10.64,10.64,0,0,1,5.16,1.14,8.22,8.22,0,0,1,3.29,3.37,20,20,0,0,1,1.87,6.41,40.22,40.22,0,0,0,1.66,7.13,9.21,9.21,0,0,0,2.14,3.63v3.94Zm12,10.36a2.71,2.71,0,0,1-2.07-.81,3.23,3.23,0,0,1-.77-2.3,3.27,3.27,0,0,1,.75-2.3,2.73,2.73,0,0,1,2.09-.81,2.64,2.64,0,0,1,2.1.85,3.82,3.82,0,0,1,0,4.52A2.68,2.68,0,0,1,622.61,596Z" transform="translate(-3.28)" style="fill:#6ca044"/></g></g></svg>