<svg xmlns="http://www.w3.org/2000/svg" viewBox="0 0 451.66 492.93"><g id="Layer_2" data-name="Layer 2"><g id="Layer_1-2" data-name="Layer 1"><circle cx="184.44" cy="425.5" r="34.87" style="fill:#f2f5d1;opacity:0.29"/><path d="M169.73,472.18a51.49,51.49,0,0,1-17.59-3,55.85,55.85,0,0,1-27.26-20.84,55.78,55.78,0,0,1-7.64-15.75q-10.32.76-15.1,7.55a26.34,26.34,0,0,0-4.33,10.75,74.79,74.79,0,0,0-1.2,13.77v11.71A16.58,16.58,0,0,1,80,492.93h-9.2V464.26q0-14.72,3.31-25.47a50.16,50.16,0,0,1,10.32-18.67,33.75,33.75,0,0,1,6.72-5.94,48.43,48.43,0,0,1,7.92-4.34,47.68,47.68,0,0,1,8.38-2.74,37.11,37.11,0,0,1,7.92-.94,60,60,0,0,1,6.45-19.05,55,55,0,0,1,12.06-15.28,56.67,56.67,0,0,1,16.39-10.09,51.24,51.24,0,0,1,19.43-3.68,54.33,54.33,0,0,1,21.82,4.43,56.39,56.39,0,0,1,17.86,12.17,55.8,55.8,0,0,1,12,18.29,59.6,59.6,0,0,1,4.33,22.83,54.94,54.94,0,0,1-4.51,22.35A56.2,56.2,0,0,1,209,456a58.15,58.15,0,0,1-17.87,11.88A53.61,53.61,0,0,1,169.73,472.18Zm-11.61-28.77a28.32,28.32,0,0,0,11.61,2.36,30.82,30.82,0,0,0,11.79-2.26,29.74,29.74,0,0,0,9.66-6.32,28.67,28.67,0,0,0,6.45-9.62,31.58,31.58,0,0,0,2.3-12.16,33.49,33.49,0,0,0-2.21-12.27,29,29,0,0,0-6.26-9.81,29.5,29.5,0,0,0-9.58-6.5,30.48,30.48,0,0,0-12.15-2.36,28,28,0,0,0-11.79,2.45,29.17,29.17,0,0,0-9.21,6.6,30.64,30.64,0,0,0-6.08,9.81,33,33,0,0,0-2.2,12.08,32.2,32.2,0,0,0,2.2,12,28.89,28.89,0,0,0,6.17,9.62A29.33,29.33,0,0,0,158.12,443.41Z" style="fill:#b2d236"/><path d="M326,306.15h-8.36A15.86,15.86,0,0,0,301.81,322v103H269.63V376h-8.36a15.86,15.86,0,0,0-15.86,15.86v54.85q0,9.21-2.85,13.29T232.44,464a39.05,39.05,0,0,1-5.37-.36,58.6,58.6,0,0,1-6-1.23l1.73,24.8a33.62,33.62,0,0,0,5.53,1.15,49.8,49.8,0,0,0,6.75.45q17.13,0,25.26-9.22t9.17-29.77H326V331a9.5,9.5,0,0,0,9.5-9.5v-5.81A9.5,9.5,0,0,0,326,306.15Z" style="fill:#b2d236"/><path d="M442.75,470.28a8.92,8.92,0,0,1-8.91-8.91c0-101.45-75.48-189.57-175.58-205A8.91,8.91,0,0,1,261,238.78c108.7,16.74,190.68,112.43,190.68,222.59A8.91,8.91,0,0,1,442.75,470.28Z" style="fill:#529546"/><path d="M8.91,470.28a8.91,8.91,0,0,0,8.91-8.91c0-101.45,75.48-189.57,175.58-205a8.91,8.91,0,0,0-2.71-17.61C82,255.52,0,351.21,0,461.37A8.91,8.91,0,0,0,8.91,470.28Z" style="fill:#529546"/><circle cx="223.91" cy="198.39" r="40.28" style="fill:#529546"/><path d="M278.21,154.74a5.53,5.53,0,0,1-1.78-.29,5.71,5.71,0,0,1-3.64-7.21l10-30.33a14,14,0,0,0-2-12.64L268.32,87.41a25.22,25.22,0,0,1-1.2-28.34l19.41-31.55a5.71,5.71,0,0,1,9.73,6L276.84,65.05a13.87,13.87,0,0,0,.66,15.57L290,97.48a25.39,25.39,0,0,1,3.69,23l-10,30.33A5.71,5.71,0,0,1,278.21,154.74Z" style="fill:#529546"/><path d="M161.51,150.45a5.7,5.7,0,0,1-5-8.42l13.81-25.57a13.94,13.94,0,0,0-2.16-12.19L155.69,87.41a25.22,25.22,0,0,1-1.2-28.34L173.9,27.52a5.71,5.71,0,0,1,9.73,6L164.22,65.05a13.87,13.87,0,0,0,.65,15.58l12.45,16.85a25.39,25.39,0,0,1,3.69,23l-.4.93-14.07,26.05A5.7,5.7,0,0,1,161.51,150.45Z" style="fill:#529546"/><path d="M216.78,121.69a5.71,5.71,0,0,1-4.82-8.76L230.7,83.25a14,14,0,0,0-2.21-12L216,54.37A25.24,25.24,0,0,1,214.84,26l14.34-23.3a5.71,5.71,0,0,1,9.73,6L224.57,32a13.86,13.86,0,0,0,.65,15.57l12.45,16.86a25.38,25.38,0,0,1,3.69,23l-.6,1.26L221.62,119A5.71,5.71,0,0,1,216.78,121.69Z" style="fill:#529546"/><path d="M250.71,364.64A19.23,19.23,0,0,0,263,360.47q5.24-4.16,5.24-12.28a15,15,0,0,0-5-11.73,19.69,19.69,0,0,0-25.06,0,15,15,0,0,0-5,11.73q0,8.12,5.25,12.28A19.18,19.18,0,0,0,250.71,364.64Z" style="fill:#b2d236"/></g></g></svg>