<svg xmlns="http://www.w3.org/2000/svg" width="22.323" height="22.323" viewBox="0 0 22.323 22.323">
  <g id="Group_219" data-name="Group 219" transform="translate(-16 -16)">
    <path id="Path_167" data-name="Path 167" d="M37.951,18.232H36.835V17.86a.372.372,0,0,0-.372-.372h-2.6v-.372a1.116,1.116,0,1,0-2.232,0v.372h-.744v-.372a1.116,1.116,0,1,0-2.232,0v.372H24.185v-.372a1.116,1.116,0,1,0-2.232,0v.372h-.744v-.372a1.116,1.116,0,1,0-2.232,0v.372h-2.6A.372.372,0,0,0,16,17.86v18.6a.372.372,0,0,0,.372.372h.372v1.116a.372.372,0,0,0,.372.372H37.951a.372.372,0,0,0,.372-.372V18.6A.372.372,0,0,0,37.951,18.232ZM16.744,36.091V22.7H36.091V36.091ZM32.37,17.116a.372.372,0,0,1,.744,0v.372H32.37Zm-2.976,0a.372.372,0,1,1,.744,0v.372h-.744Zm-6.7,0a.372.372,0,0,1,.744,0v.372H22.7Zm-2.976,0a.372.372,0,1,1,.744,0v.372h-.744Zm-.744,1.116V18.6a1.117,1.117,0,0,0,1.116,1.116.372.372,0,0,0,0-.744.372.372,0,0,1-.372-.372v-.372h2.232V18.6a1.117,1.117,0,0,0,1.116,1.116.372.372,0,0,0,0-.744A.372.372,0,0,1,22.7,18.6v-.372H28.65V18.6a1.117,1.117,0,0,0,1.116,1.116.372.372,0,0,0,0-.744.372.372,0,0,1-.372-.372v-.372h2.232V18.6a1.117,1.117,0,0,0,1.116,1.116.372.372,0,0,0,0-.744.372.372,0,0,1-.372-.372v-.372h3.721v3.721H16.744V18.232Zm18.6,19.347H17.488v-.744H36.463a.372.372,0,0,0,.372-.372V18.976h.744Z" transform="translate(0 0)" fill="#50b848"/>
    <path id="Path_168" data-name="Path 168" d="M145.653,203.226a.372.372,0,0,0-.306-.248l-2.792-.349-1.4-2.443a.372.372,0,0,0-.646,0l-1.4,2.443-2.792.349a.372.372,0,0,0-.217.632l2.1,2.1-.35,2.8a.372.372,0,0,0,.554.369l2.42-1.383,2.42,1.383a.372.372,0,0,0,.554-.369l-.349-2.8,2.1-2.1A.372.372,0,0,0,145.653,203.226Zm-2.847,2.09a.372.372,0,0,0-.106.309l.28,2.238-1.958-1.119a.372.372,0,0,0-.369,0l-1.958,1.119.28-2.238a.372.372,0,0,0-.106-.309l-1.694-1.694,2.222-.278a.372.372,0,0,0,.277-.185l1.165-2.039L142,203.16a.372.372,0,0,0,.277.185l2.222.278Z" transform="translate(-114.419 -175.442)" fill="#50b848"/>
  </g>
</svg>
