<svg xmlns="http://www.w3.org/2000/svg" width="17.568" height="17.565" viewBox="0 0 17.568 17.565">
  <g id="Group_792" data-name="Group 792" transform="translate(432.528 -308.833)">
    <g id="Group_791" data-name="Group 791">
      <g id="Group_768" data-name="Group 768">
        <g id="Group_767" data-name="Group 767">
          <g id="Group_766" data-name="Group 766">
            <path id="Path_654" data-name="Path 654" d="M-418.26,313.321l-.282-.928a2.016,2.016,0,0,0-2.557-1.26,2.013,2.013,0,0,0-1.26,1.26l-.282.928a5.21,5.21,0,0,0-.145,2.415,2.268,2.268,0,0,0,1.17,1.583l-.316,7.059a1.391,1.391,0,0,0,.351,1.081,1.533,1.533,0,0,0,2.167.1c.034-.031.067-.063.1-.1a1.375,1.375,0,0,0,.351-1.052l-.318-7.088a2.27,2.27,0,0,0,1.168-1.583A5.21,5.21,0,0,0-418.26,313.321Zm-.72,2.262a1.393,1.393,0,0,1-.911,1.05.437.437,0,0,0-.284.43l.334,7.414a.511.511,0,0,1-.132.4.678.678,0,0,1-.955,0,.529.529,0,0,1-.129-.427l.331-7.385a.437.437,0,0,0-.284-.43,1.393,1.393,0,0,1-.911-1.05,4.321,4.321,0,0,1,.121-2.005l.282-.928a1.139,1.139,0,0,1,1.463-.673,1.141,1.141,0,0,1,.673.673l.282.928A4.334,4.334,0,0,1-418.98,315.583Z" fill="#50b848"/>
          </g>
        </g>
      </g>
      <g id="Group_771" data-name="Group 771">
        <g id="Group_770" data-name="Group 770">
          <g id="Group_769" data-name="Group 769">
            <path id="Path_655" data-name="Path 655" d="M-425.062,311.028a.439.439,0,0,0-.439.439v3.77l-1.189,1.189a.444.444,0,0,0-.128.333l.384,7.685a.6.6,0,0,1-.166.447.617.617,0,0,1-.874,0l0,0a.6.6,0,0,1-.166-.447l.387-7.685a.441.441,0,0,0-.129-.333l-1.189-1.189v-3.77a.438.438,0,0,0-.439-.439.438.438,0,0,0-.439.439v3.952a.438.438,0,0,0,.129.311l1.179,1.18-.374,7.491a1.483,1.483,0,0,0,1.409,1.554,1.484,1.484,0,0,0,1.554-1.409c0-.048,0-.1,0-.145l-.375-7.491,1.18-1.18a.442.442,0,0,0,.129-.311v-3.952A.439.439,0,0,0-425.062,311.028Z" fill="#50b848"/>
          </g>
        </g>
      </g>
      <g id="Group_774" data-name="Group 774">
        <g id="Group_773" data-name="Group 773">
          <g id="Group_772" data-name="Group 772">
            <path id="Path_656" data-name="Path 656" d="M-427.7,311.028a.439.439,0,0,0-.439.439v3.513a.439.439,0,0,0,.439.439.439.439,0,0,0,.44-.439v-3.513A.439.439,0,0,0-427.7,311.028Z" fill="#50b848"/>
          </g>
        </g>
      </g>
      <g id="Group_777" data-name="Group 777">
        <g id="Group_776" data-name="Group 776">
          <g id="Group_775" data-name="Group 775">
            <path id="Path_657" data-name="Path 657" d="M-426.379,311.028a.438.438,0,0,0-.439.439v3.513a.438.438,0,0,0,.439.439.439.439,0,0,0,.439-.439v-3.513A.439.439,0,0,0-426.379,311.028Z" fill="#50b848"/>
          </g>
        </g>
      </g>
      <g id="Group_780" data-name="Group 780">
        <g id="Group_779" data-name="Group 779">
          <g id="Group_778" data-name="Group 778">
            <path id="Path_658" data-name="Path 658" d="M-422.319,325.859a.439.439,0,0,0-.479-.4l-.017,0h0a8.045,8.045,0,0,1-1.861,0,.439.439,0,0,0-.487.385.439.439,0,0,0,.385.487,8.8,8.8,0,0,0,2.064,0A.438.438,0,0,0-422.319,325.859Z" fill="#50b848"/>
          </g>
        </g>
      </g>
      <g id="Group_783" data-name="Group 783">
        <g id="Group_782" data-name="Group 782">
          <g id="Group_781" data-name="Group 781">
            <path id="Path_659" data-name="Path 659" d="M-417.025,311.956a.439.439,0,0,0-.619-.054h0a.439.439,0,0,0-.053.619,7.9,7.9,0,0,1-.466,10.692.439.439,0,0,0,0,.621.439.439,0,0,0,.621,0A8.784,8.784,0,0,0-417.025,311.956Z" fill="#50b848"/>
          </g>
        </g>
      </g>
      <g id="Group_787" data-name="Group 787">
        <g id="Group_786" data-name="Group 786">
          <g id="Group_785" data-name="Group 785">
            <g id="Group_784" data-name="Group 784">
              <path id="Path_660" data-name="Path 660" d="M-426.687,310.245h0Z" fill="#50b848"/>
              <path id="Path_661" data-name="Path 661" d="M-421.673,309.077a8.865,8.865,0,0,0-5.169.318.439.439,0,0,0-.256.566.438.438,0,0,0,.41.284.447.447,0,0,0,.154-.028,7.973,7.973,0,0,1,4.655-.286.439.439,0,0,0,.53-.324A.439.439,0,0,0-421.673,309.077Z" fill="#50b848"/>
            </g>
          </g>
        </g>
      </g>
      <g id="Group_790" data-name="Group 790">
        <g id="Group_789" data-name="Group 789">
          <g id="Group_788" data-name="Group 788">
            <path id="Path_662" data-name="Path 662" d="M-429.344,323.192a7.855,7.855,0,0,1-2.3-5.577,7.852,7.852,0,0,1,1.511-4.65.439.439,0,0,0-.087-.615.441.441,0,0,0-.615.087l-.007.011a8.781,8.781,0,0,0,.881,11.366.439.439,0,0,0,.622,0A.439.439,0,0,0-429.344,323.192Z" fill="#50b848"/>
          </g>
        </g>
      </g>
    </g>
  </g>
</svg>
