<svg xmlns="http://www.w3.org/2000/svg" width="14.708" height="25.561" viewBox="0 0 14.708 25.561">
  <g id="Group_368" data-name="Group 368" transform="translate(-297.061 -465.859)">
    <rect id="Rectangle_93" data-name="Rectangle 93" width="1.319" height="3.784" rx="0.659" transform="translate(307.164 465.859)" fill="#50b848"/>
    <path id="Path_291" data-name="Path 291" d="M309.349,468.959h-9.868a2.423,2.423,0,0,0-2.42,2.42V489a2.423,2.423,0,0,0,2.42,2.42h9.868a2.423,2.423,0,0,0,2.42-2.42V471.379a2.423,2.423,0,0,0-2.42-2.42Zm-9.868,1.316h9.868a1.1,1.1,0,0,1,1.1,1.1v13.086H298.377V471.379a1.1,1.1,0,0,1,1.1-1.1Zm9.868,19.829h-9.868a1.1,1.1,0,0,1-1.1-1.1v-3.219h12.076V489a1.1,1.1,0,0,1-1.1,1.1Zm0,0" fill="#50b848"/>
    <g id="Group_367" data-name="Group 367">
      <circle id="Ellipse_30" data-name="Ellipse 30" cx="0.124" cy="0.124" r="0.124" transform="translate(304.291 487.819)" fill="none"/>
      <path id="Path_292" data-name="Path 292" d="M304.415,486.42a1.522,1.522,0,1,0,1.523,1.523A1.525,1.525,0,0,0,304.415,486.42Zm0,2.054a.531.531,0,1,1,.532-.531A.532.532,0,0,1,304.415,488.474Z" fill="#50b848"/>
    </g>
  </g>
</svg>
