<svg xmlns="http://www.w3.org/2000/svg" width="15.07" height="20.805" viewBox="0 0 15.07 20.805">
  <g id="Group_392" data-name="Group 392" transform="translate(-676.004 -466.868)">
    <g id="Group_391" data-name="Group 391">
      <g id="Group_390" data-name="Group 390">
        <path id="Path_313" data-name="Path 313" d="M683.539,466.868A7.543,7.543,0,0,0,676,474.4c0,5.156,6.743,12.725,7.03,13.045a.678.678,0,0,0,1.01,0c.287-.32,7.03-7.889,7.03-13.045A7.543,7.543,0,0,0,683.539,466.868Zm0,18.836c-2.378-2.811-6.009-7.954-6.009-11.3a6.009,6.009,0,1,1,12.018,0C689.548,477.744,685.916,482.889,683.539,485.7Z" fill="#50b848"/>
      </g>
    </g>
    <path id="Path_314" data-name="Path 314" d="M683.539,471.548a2.855,2.855,0,1,0,2.854,2.855,2.859,2.859,0,0,0-2.854-2.855Zm0,4.556a1.7,1.7,0,1,1,1.7-1.7,1.7,1.7,0,0,1-1.7,1.7Zm0,.132" fill="#50b848"/>
  </g>
</svg>
