<svg id="icon_restaurants" xmlns="http://www.w3.org/2000/svg" width="16.888" height="16.884" viewBox="0 0 16.888 16.884">
  <g id="Group_51" data-name="Group 51">
    <g id="Group_28" data-name="Group 28" transform="translate(9.289 2.107)">
      <g id="Group_27" data-name="Group 27">
        <g id="Group_26" data-name="Group 26">
          <path id="Path_30" data-name="Path 30" d="M-665.351-128.764l-.271-.893a1.936,1.936,0,0,0-2.457-1.211,1.937,1.937,0,0,0-1.212,1.211l-.271.893a5.015,5.015,0,0,0-.14,2.321,2.183,2.183,0,0,0,1.125,1.522l-.3,6.785a1.342,1.342,0,0,0,.338,1.04,1.475,1.475,0,0,0,2.083.093q.049-.045.093-.093a1.319,1.319,0,0,0,.338-1.012l-.3-6.814a2.182,2.182,0,0,0,1.123-1.521A5,5,0,0,0-665.351-128.764Zm-.692,2.174a1.337,1.337,0,0,1-.876,1.009.424.424,0,0,0-.273.415l.321,7.126a.49.49,0,0,1-.127.383.653.653,0,0,1-.918,0,.509.509,0,0,1-.124-.411l.318-7.1a.422.422,0,0,0-.273-.415,1.336,1.336,0,0,1-.876-1.009,4.166,4.166,0,0,1,.116-1.927l.271-.892a1.1,1.1,0,0,1,1.407-.648,1.1,1.1,0,0,1,.647.648l.271.892A4.166,4.166,0,0,1-666.043-126.589Z" transform="translate(669.778 130.971)" fill="#f3f4e1"/>
        </g>
      </g>
    </g>
    <g id="Group_31" data-name="Group 31" transform="translate(2.956 2.11)">
      <g id="Group_30" data-name="Group 30">
        <g id="Group_29" data-name="Group 29">
          <path id="Path_31" data-name="Path 31" d="M-671.891-130.968a.422.422,0,0,0-.422.422v3.625l-1.143,1.143a.418.418,0,0,0-.124.319l.369,7.388a.576.576,0,0,1-.159.431.594.594,0,0,1-.841,0l0,0a.576.576,0,0,1-.159-.431l.372-7.388a.419.419,0,0,0-.124-.319l-1.143-1.143v-3.625a.422.422,0,0,0-.423-.422.422.422,0,0,0-.422.422v3.8a.424.424,0,0,0,.124.3l1.134,1.135-.36,7.2a1.427,1.427,0,0,0,1.355,1.493,1.428,1.428,0,0,0,1.495-1.356q0-.069,0-.138l-.361-7.2,1.135-1.135a.421.421,0,0,0,.123-.3v-3.8A.422.422,0,0,0-671.891-130.968Z" transform="translate(676.113 130.968)" fill="#f3f4e1"/>
        </g>
      </g>
    </g>
    <g id="Group_34" data-name="Group 34" transform="translate(4.222 2.11)">
      <g id="Group_33" data-name="Group 33">
        <g id="Group_32" data-name="Group 32">
          <path id="Path_32" data-name="Path 32" d="M-674.424-130.968a.422.422,0,0,0-.422.422v3.377a.422.422,0,0,0,.422.422.422.422,0,0,0,.423-.422v-3.377A.422.422,0,0,0-674.424-130.968Z" transform="translate(674.846 130.968)" fill="#f3f4e1"/>
        </g>
      </g>
    </g>
    <g id="Group_37" data-name="Group 37" transform="translate(5.489 2.11)">
      <g id="Group_36" data-name="Group 36">
        <g id="Group_35" data-name="Group 35">
          <path id="Path_33" data-name="Path 33" d="M-673.157-130.968a.422.422,0,0,0-.422.422v3.377a.422.422,0,0,0,.422.422.423.423,0,0,0,.423-.422v-3.377A.423.423,0,0,0-673.157-130.968Z" transform="translate(673.579 130.968)" fill="#f3f4e1"/>
        </g>
      </g>
    </g>
    <g id="Group_40" data-name="Group 40" transform="translate(7.077 15.985)">
      <g id="Group_39" data-name="Group 39">
        <g id="Group_38" data-name="Group 38">
          <path id="Path_34" data-name="Path 34" d="M-669.253-116.707a.422.422,0,0,0-.462-.379h-.014a7.762,7.762,0,0,1-1.789,0,.423.423,0,0,0-.469.37.423.423,0,0,0,.371.469,8.545,8.545,0,0,0,1.983,0A.422.422,0,0,0-669.253-116.707Z" transform="translate(671.99 117.088)" fill="#f3f4e1"/>
        </g>
      </g>
    </g>
    <g id="Group_43" data-name="Group 43" transform="translate(13.683 2.851)">
      <g id="Group_42" data-name="Group 42">
        <g id="Group_41" data-name="Group 41">
          <path id="Path_35" data-name="Path 35" d="M-664.162-130.076a.423.423,0,0,0-.595-.052l0,0a.422.422,0,0,0-.05.595,7.6,7.6,0,0,1-.448,10.278.422.422,0,0,0,0,.6.422.422,0,0,0,.6,0A8.443,8.443,0,0,0-664.162-130.076Z" transform="translate(665.382 130.227)" fill="#f3f4e1"/>
        </g>
      </g>
    </g>
    <g id="Group_47" data-name="Group 47" transform="translate(5.192)">
      <g id="Group_46" data-name="Group 46">
        <g id="Group_45" data-name="Group 45">
          <g id="Group_44" data-name="Group 44">
            <path id="Path_36" data-name="Path 36" d="M-673.453-131.721h0Z" transform="translate(673.875 133.078)" fill="#f3f4e1"/>
            <path id="Path_37" data-name="Path 37" d="M-668.633-132.844a8.519,8.519,0,0,0-4.969.306.42.42,0,0,0-.246.543.42.42,0,0,0,.394.274.413.413,0,0,0,.148-.027,7.666,7.666,0,0,1,4.474-.275.422.422,0,0,0,.51-.311A.422.422,0,0,0-668.633-132.844Z" transform="translate(673.876 133.078)" fill="#f3f4e1"/>
          </g>
        </g>
      </g>
    </g>
    <g id="Group_50" data-name="Group 50" transform="translate(0 3.296)">
      <g id="Group_49" data-name="Group 49">
        <g id="Group_48" data-name="Group 48">
          <path id="Path_38" data-name="Path 38" d="M-676.009-119.275a7.551,7.551,0,0,1-2.215-5.361,7.543,7.543,0,0,1,1.453-4.469.424.424,0,0,0-.084-.592.422.422,0,0,0-.591.084l-.008.01a8.444,8.444,0,0,0,.848,10.926.423.423,0,0,0,.6,0A.423.423,0,0,0-676.009-119.275Z" transform="translate(679.07 129.782)" fill="#f3f4e1"/>
        </g>
      </g>
    </g>
  </g>
</svg>
