<svg xmlns="http://www.w3.org/2000/svg" width="15.228" height="15.981" viewBox="0 0 15.228 15.981">
  <g id="Group_758" data-name="Group 758" transform="translate(430.188 -449.323)">
    <g id="Group_757" data-name="Group 757">
      <g id="Group_756" data-name="Group 756">
        <path id="Path_648" data-name="Path 648" d="M-422.569,453.171a2.8,2.8,0,0,0-1.394.362,2.578,2.578,0,0,0-1.355,2.246,2.68,2.68,0,0,0,2.749,2.6,2.336,2.336,0,0,0,.439-.036,2.653,2.653,0,0,0,2.3-2.562A2.679,2.679,0,0,0-422.569,453.171Zm.21,4.609a1.631,1.631,0,0,1-.21.009,2.077,2.077,0,0,1-2.129-2.01,1.983,1.983,0,0,1,.859-1.621,2.208,2.208,0,0,1,1.27-.4,2.077,2.077,0,0,1,2.12,2.02A2.058,2.058,0,0,1-422.359,457.78Zm.621,1.53a7.034,7.034,0,0,0-.831-.054c-1.814,0-5.184.923-5.184,2.68v1.059h10.359v-1.059C-417.394,460.424-419.9,459.527-421.738,459.31Zm3.723,3.106h-9.117v-.48c0-1.277,2.988-2.1,4.563-2.1a7.118,7.118,0,0,1,1.089.1c1.565.253,3.465.978,3.465,2Zm-3.723-3.106a7.034,7.034,0,0,0-.831-.054c-1.814,0-5.184.923-5.184,2.68v1.059h10.359v-1.059C-417.394,460.424-419.9,459.527-421.738,459.31Zm3.723,3.106h-9.117v-.48c0-1.277,2.988-2.1,4.563-2.1a7.118,7.118,0,0,1,1.089.1c1.565.253,3.465.978,3.465,2Zm-4.554-4.039a2.336,2.336,0,0,0,.439-.036,2.653,2.653,0,0,0,2.3-2.562,2.679,2.679,0,0,0-2.74-2.608,2.8,2.8,0,0,0-1.394.362,2.578,2.578,0,0,0-1.355,2.246A2.68,2.68,0,0,0-422.569,458.377Zm-1.27-4.219a2.208,2.208,0,0,1,1.27-.4,2.077,2.077,0,0,1,2.12,2.02,2.058,2.058,0,0,1-1.91,2,1.631,1.631,0,0,1-.21.009,2.077,2.077,0,0,1-2.129-2.01A1.983,1.983,0,0,1-423.839,454.158Zm6.951-3.3h-.506v-1.539h-2.244v1.539h-5.871v-1.539h-2.244v1.539h-.506a1.888,1.888,0,0,0-1.929,1.829v10.784a1.888,1.888,0,0,0,1.929,1.829h11.371a1.887,1.887,0,0,0,1.928-1.829V452.691A1.887,1.887,0,0,0-416.888,450.862Zm1.317,12.613a1.286,1.286,0,0,1-1.317,1.249h-11.371a1.287,1.287,0,0,1-1.318-1.249V452.691a1.28,1.28,0,0,1,1.318-1.24h1.127V449.9h1v1.549h7.113V449.9h1v1.549h1.127a1.279,1.279,0,0,1,1.317,1.24Zm-6.167-4.165a7.034,7.034,0,0,0-.831-.054c-1.814,0-5.184.923-5.184,2.68v1.059h10.359v-1.059C-417.394,460.424-419.9,459.527-421.738,459.31Zm3.723,3.106h-9.117v-.48c0-1.277,2.988-2.1,4.563-2.1a7.118,7.118,0,0,1,1.089.1c1.565.253,3.465.978,3.465,2Zm-4.554-4.039a2.336,2.336,0,0,0,.439-.036,2.653,2.653,0,0,0,2.3-2.562,2.679,2.679,0,0,0-2.74-2.608,2.8,2.8,0,0,0-1.394.362,2.578,2.578,0,0,0-1.355,2.246A2.68,2.68,0,0,0-422.569,458.377Zm-1.27-4.219a2.208,2.208,0,0,1,1.27-.4,2.077,2.077,0,0,1,2.12,2.02,2.058,2.058,0,0,1-1.91,2,1.631,1.631,0,0,1-.21.009,2.077,2.077,0,0,1-2.129-2.01A1.983,1.983,0,0,1-423.839,454.158Z" fill="#50b848"/>
      </g>
    </g>
  </g>
</svg>
