<svg xmlns="http://www.w3.org/2000/svg" enable-background="new 0 0 512 512" viewBox="0 0 512 512"><path d="M452.7,166.9c-5.2-7.3-10.2-14.3-12.4-21.1c-2.3-7.2-2.5-16-2.6-25.4c-0.2-14.2-0.4-28.9-8.8-40.4
	c-8.5-11.6-22.4-16.4-36-20.9c-8.8-3-17-5.8-23.1-10.2c-5.9-4.3-11.1-11.2-16.5-18.6c-8.6-11.5-17.4-23.5-31.3-28
	c-13.3-4.3-27.2,0-40.6,4.1c-9,2.8-17.6,5.4-25.4,5.4s-16.4-2.6-25.4-5.4c-13.5-4.2-27.4-8.5-40.6-4.1c-13.9,4.5-22.7,16.4-31.3,28
	c-5.5,7.3-10.6,14.3-16.5,18.6c-6,4.4-14.3,7.2-23.1,10.2c-13.5,4.6-27.5,9.3-36,20.9c-8.4,11.5-8.6,26.2-8.8,40.4
	c-0.1,9.3-0.3,18.1-2.6,25.4c-2.2,6.8-7.1,13.7-12.4,21.1c-8.4,11.8-17.1,24-17.1,38.8s8.7,27,17.1,38.8
	c5.2,7.3,10.2,14.3,12.4,21.1c2.3,7.2,2.5,16,2.6,25.4c0.2,14.2,0.4,28.9,8.8,40.4c8.5,11.6,22.4,16.4,36,20.9
	c8.8,3,17,5.8,23.1,10.2c5.9,4.3,11.1,11.2,16.5,18.6c3.5,4.7,7,9.4,10.9,13.7v89.1c0,9.9,5.1,18.8,13.7,23.8c8.6,5,18.8,5,27.4,0.1
	l39.2-22.3c3.8-2.2,8.6-2.2,12.4,0l39.2,22.3c4.3,2.4,8.9,3.6,13.6,3.6c4.8,0,9.5-1.3,13.8-3.8c8.6-5,13.7-13.9,13.7-23.8v-89.1
	c3.9-4.3,7.4-9,10.9-13.7c5.5-7.3,10.6-14.3,16.5-18.6c6-4.4,14.3-7.2,23.1-10.2c13.5-4.6,27.5-9.3,36-20.9
	c8.4-11.5,8.6-26.2,8.8-40.4c0.1-9.3,0.3-18.1,2.6-25.4c2.2-6.8,7.1-13.7,12.4-21.1c8.4-11.8,17.1-24,17.1-38.8
	C469.8,190.9,461.1,178.7,452.7,166.9z M327.5,483.9c0,4.5-2.3,8.5-6.2,10.8c-3.9,2.3-8.6,2.3-12.5,0.1l-39.2-22.3
	c-8.4-4.8-18.8-4.8-27.2,0l-39.2,22.3c-3.9,2.2-8.6,2.2-12.5-0.1c-3.9-2.3-6.2-6.3-6.2-10.8v-77c1.7,0.9,3.5,1.6,5.4,2.3
	c3.9,1.3,7.9,1.8,11.9,1.8c9.6,0,19.3-3,28.8-5.9c9-2.8,17.6-5.4,25.4-5.4c7.8,0,16.4,2.6,25.4,5.4c13.5,4.2,27.4,8.5,40.6,4.1
	c1.9-0.6,3.7-1.4,5.4-2.3V483.9z M440.5,235.9c-5.7,7.9-11.5,16.2-14.4,25.1c-3,9.4-3.2,19.8-3.3,29.8c-0.2,12.4-0.3,24.2-5.9,31.8
	c-5.7,7.8-16.8,11.6-28.7,15.6c-9.4,3.2-19.2,6.5-27.1,12.2c-7.8,5.7-13.9,13.9-19.7,21.8c-7.5,10.1-14.6,19.6-23.9,22.7
	c-8.8,2.8-19.8-0.6-31.6-4.2c-9.7-3-19.8-6.1-29.9-6.1s-20.1,3.1-29.9,6.1c-11.7,3.6-22.8,7.1-31.6,4.2c-9.3-3-16.4-12.6-23.9-22.7
	c-5.9-7.9-12-16.1-19.7-21.8c-7.9-5.7-17.6-9-27.1-12.2c-11.8-4-23-7.8-28.7-15.6c-5.6-7.6-5.7-19.4-5.9-31.8
	c-0.1-10-0.3-20.4-3.3-29.8c-2.9-9-8.8-17.2-14.4-25.1c-7.4-10.3-14.3-20.1-14.3-30.2s6.9-19.8,14.3-30.2
	c5.7-7.9,11.5-16.2,14.4-25.1c3-9.4,3.2-19.8,3.3-29.8c0.2-12.4,0.3-24.2,5.9-31.8c5.7-7.8,16.8-11.6,28.7-15.6
	c9.4-3.2,19.2-6.5,27.1-12.2c7.8-5.7,13.9-13.9,19.7-21.8c7.5-10.1,14.6-19.6,23.9-22.7c2.3-0.7,4.7-1.1,7.2-1.1
	c7.3,0,15.6,2.6,24.3,5.3c9.7,3,19.8,6.1,29.9,6.1s20.1-3.1,29.9-6.1c11.7-3.6,22.8-7.1,31.6-4.2c9.3,3,16.4,12.6,23.9,22.7
	c5.9,7.9,12,16.1,19.7,21.8c7.9,5.7,17.6,9,27.1,12.2c11.8,4,23,7.8,28.7,15.6c5.6,7.6,5.7,19.4,5.9,31.8c0.1,10,0.3,20.4,3.3,29.8
	c2.9,9,8.8,17.2,14.4,25.1c7.4,10.3,14.3,20.1,14.3,30.2C454.8,215.8,447.9,225.6,440.5,235.9z M256,49.9
	c-85.9,0-155.8,69.9-155.8,155.8c0,85.9,69.9,155.8,155.8,155.8c85.9,0,155.8-69.9,155.8-155.8C411.8,119.8,341.9,49.9,256,49.9z
	 M256,346.5c-77.6,0-140.8-63.2-140.8-140.8S178.4,64.9,256,64.9s140.8,63.2,140.8,140.8S333.6,346.5,256,346.5z M306.4,144.8
	L201,250.1c-2.9,2.9-2.9,7.7,0,10.6c1.5,1.5,3.4,2.2,5.3,2.2s3.8-0.7,5.3-2.2L317,155.4c2.9-2.9,2.9-7.7,0-10.6
	C314,141.9,309.3,141.9,306.4,144.8z M270.5,220.2c-5.4,5.4-8.3,12.5-8.3,20.2s3,14.8,8.3,20.2c5.4,5.4,12.5,8.3,20.2,8.3
	s14.8-3,20.2-8.3c5.4-5.4,8.3-12.5,8.3-20.2s-3-14.8-8.3-20.2C299.7,209.1,281.6,209.1,270.5,220.2z M300.2,249.9
	C300.2,249.9,300.2,249.9,300.2,249.9c-2.6,2.6-5.9,4-9.5,4s-7-1.4-9.5-4s-4-5.9-4-9.5s1.4-7,4-9.5c2.6-2.6,6.1-3.9,9.5-3.9
	s6.9,1.3,9.5,3.9c2.6,2.6,4,5.9,4,9.5S302.8,247.4,300.2,249.9z M221.3,199.6c7.6,0,14.8-3,20.2-8.3c5.4-5.4,8.3-12.5,8.3-20.2
	s-3-14.8-8.3-20.2c-5.4-5.4-12.5-8.3-20.2-8.3s-14.8,3-20.2,8.3c-11.1,11.1-11.1,29.2,0,40.3C206.6,196.6,213.7,199.6,221.3,199.6z
	 M211.8,161.5c2.6-2.6,5.9-4,9.5-4s7,1.4,9.5,4c2.6,2.6,4,5.9,4,9.5s-1.4,7-4,9.5c0,0,0,0,0,0c-2.6,2.6-5.9,4-9.5,4s-7-1.4-9.5-4
	C206.5,175.4,206.5,166.8,211.8,161.5z"/></svg>