<svg id="icon_acount" xmlns="http://www.w3.org/2000/svg" width="25.726" height="16.764" viewBox="0 0 25.726 16.764">
  <g id="Group_15" data-name="Group 15">
    <g id="Group_13" data-name="Group 13">
      <g id="Group_12" data-name="Group 12">
        <path id="Path_14" data-name="Path 14" d="M-482.9-116.75h-1.02a2.743,2.743,0,0,1,.04.5.566.566,0,0,1-.56.51h-13.515a.518.518,0,0,1-.51-.51,3.657,3.657,0,0,1,3.619-3.679.5.5,0,0,0,.51-.5.519.519,0,0,0-.51-.56,4.758,4.758,0,0,0-4.688,4.738,1.589,1.589,0,0,0,1.579,1.579h13.515a1.581,1.581,0,0,0,1.569-1.579A2.8,2.8,0,0,0-482.9-116.75Zm-4.658-4.239a.551.551,0,0,0-.51.56.539.539,0,0,0,.51.5,3.774,3.774,0,0,1,1.08.161v-1.091A4.764,4.764,0,0,0-487.555-120.989Zm-.3-8.727a4.159,4.159,0,0,0-3.319-1.719c-2.6,0-4.688,2.589-4.688,5.748s2.089,5.758,4.688,5.758c2.549,0,4.688-2.588,4.688-5.758A6.436,6.436,0,0,0-487.855-129.716Zm-3.319,8.727a.308.308,0,0,1-.1-.01h-.01c-1.989-.07-3.559-2.129-3.559-4.688a5.592,5.592,0,0,1,.19-1.49v-.01a4.593,4.593,0,0,1,.79-1.679,3.5,3.5,0,0,1,1.659-1.31,2.777,2.777,0,0,1,1.03-.2c1.989,0,3.619,2.089,3.619,4.688S-489.184-120.989-491.174-120.989Z" transform="translate(499.531 131.435)" fill="#f3f4e1" fill-rule="evenodd"/>
      </g>
    </g>
    <g id="Group_14" data-name="Group 14" transform="translate(13.151 1.719)">
      <path id="Path_15" data-name="Path 15" d="M-477.5-128.375a3.214,3.214,0,0,0-2.569-1.34c-1.979,0-3.6,1.969-3.6,4.39s1.619,4.4,3.6,4.4c1.959,0,3.609-2.009,3.609-4.4A4.872,4.872,0,0,0-477.5-128.375Zm-2.569,6.348c-1.4,0-2.549-1.479-2.549-3.3s1.15-3.29,2.549-3.29,2.509,1.481,2.509,3.29S-478.683-122.028-480.072-122.028Z" transform="translate(486.375 129.715)" fill="#f3f4e1"/>
      <path id="Path_16" data-name="Path 16" d="M-477.406-122.022a.565.565,0,0,0-.53.568.557.557,0,0,0,.53.528,2.55,2.55,0,0,1,2.546,2.548.257.257,0,0,1-.258.22h-9.941a.221.221,0,0,1-.222-.22,2.531,2.531,0,0,1,2.508-2.548.531.531,0,0,0,.532-.528.539.539,0,0,0-.532-.568,3.672,3.672,0,0,0-3.6,3.644,1.318,1.318,0,0,0,1.318,1.316h9.941a1.318,1.318,0,0,0,1.318-1.316A3.63,3.63,0,0,0-477.406-122.022Z" transform="translate(486.376 129.712)" fill="#f3f4e1"/>
    </g>
  </g>
</svg>
