<?xml version="1.0" encoding="utf-8"?>
<!-- Svg Vector Icons : http://www.onlinewebfonts.com/icon -->
<!DOCTYPE svg PUBLIC "-//W3C//DTD SVG 1.1//EN" "http://www.w3.org/Graphics/SVG/1.1/DTD/svg11.dtd">
<svg version="1.1" xmlns="http://www.w3.org/2000/svg" xmlns:xlink="http://www.w3.org/1999/xlink" x="0px" y="0px" viewBox="0 0 1000 1000" enable-background="new 0 0 1000 1000" xml:space="preserve">
<metadata> Svg Vector Icons : http://www.onlinewebfonts.com/icon </metadata>
<g><g transform="translate(0.000000,511.000000) scale(0.100000,-0.100000)"><path d="M8447.9,3908.8L7368.3,2829.2l-132.7,51c-181.2,68.9-441.5,66.4-640.6-10.2c-181.2-68.9-380.3-255.2-472.1-444.1c-86.8-178.6-91.9-551.3-7.6-732.5c76.6-171,270.5-364.9,439-446.6c122.5-58.7,176.1-68.9,372.6-71.5c199.1,0,247.6,10.2,372.6,71.5c191.4,91.9,382.8,298.6,451.7,484.9c68.9,181.2,74,418.5,12.8,604.8l-40.8,130.2l1087.2,1089.7L9900,4646.3l-173.5,173.5c-94.4,94.4-178.7,171-183.8,171C9535.1,4990.9,9042.5,4503.4,8447.9,3908.8z M7148.9,2359.7c183.8-132.7,209.3-393,51-561.5c-79.1-86.8-117.4-107.2-216.9-117.4c-148-17.9-250.1,23-349.6,137.8c-63.8,71.5-76.6,107.2-76.6,214.4c0,194,102.1,344.5,268,387.9C6911.5,2443.9,7069.7,2413.3,7148.9,2359.7z"/><path d="M6212.2,4174.2c-1066.8-10.2-1237.8-17.9-1314.3-56.1c-53.6-23-1046.4-1000.4-2444.9-2399L100-636.5l2067.2-2067.2l2067.2-2067.2l2363.2,2360.7C8077.8-932.5,8976.1-16.3,9001.7,39.8c33.2,74,40.8,250.1,48.5,1084.6c5.1,548.7,10.2,1296.5,15.3,1666.5l7.7,671.2L8817.9,3207l-252.6-252.7l-12.8-1350.1l-10.2-1347.5L6388.3-1899.8l-2154-2156.5L2524.5-2346.4L814.6-636.5l2146.3,2146.3l2146.3,2146.3l1370.5,17.9l1367.9,17.9l255.2,255.2l255.2,252.7l-459.4-5.1C7643.9,4189.5,6886,4181.8,6212.2,4174.2z"/><path d="M3877.1,739.1C3223.7,598.7,2728.6-6.1,2721-672.2c-5.1-433.8,135.3-773.3,439-1074.4c209.3-206.7,410.9-329.2,640.6-390.5c163.3-40.8,245-23,278.2,63.8c45.9,125-15.3,193.9-232.2,257.8c-548.7,165.9-908.5,780.9-788.6,1342.4c74,347.1,334.3,673.7,658.4,826.9c165.9,76.6,188.8,81.7,479.8,81.7c290.9,0,313.9-5.1,479.8-81.7c99.5-48.5,234.8-142.9,321.6-224.6c214.4-204.2,313.9-405.8,370.1-750.3l15.3-86.8l-153.1,15.3c-150.6,12.8-229.7-15.3-229.7-86.8c0-12.8,99.5-130.2,219.5-265.4c148-163.3,237.4-242.5,275.6-242.5c33.2,0,150.6,91.9,296,227.1c209.3,196.5,239.9,234.8,214.4,275.6c-20.4,33.2-66.4,48.5-173.6,53.6c-135.3,7.7-142.9,10.2-142.9,76.6c-2.5,148-79.1,433.9-168.4,617.6c-117.4,237.3-385.4,513-615.1,632.9C4586.6,764.6,4221.6,815.6,3877.1,739.1z"/><path d="M3741.8-207.7c-45.9-43.4-7.7-137.8,109.7-268c104.6-117.4,127.6-160.8,127.6-239.9c0-68.9,17.9-117.4,66.4-168.5c61.3-61.2,71.5-99.5,94.4-331.8c28.1-301.1,68.9-380.2,171-326.7c56.2,30.6,56.2,38.3,38.3,306.3c-15.3,260.3-12.8,280.7,38.3,352.2c125,168.5,38.3,372.6-168.4,405.8c-79.1,12.8-125,43.4-222,150.6C3882.2-200.1,3790.3-156.7,3741.8-207.7z"/></g></g>
</svg>