<svg xmlns="http://www.w3.org/2000/svg" width="15.604" height="15.839" viewBox="0 0 15.604 15.839">
  <path id="Path_211" data-name="Path 211" d="M5.4,12.01a.309.309,0,1,0,.309.309A.309.309,0,0,0,5.4,12.01ZM7.41,5.255a1.284,1.284,0,1,0,.376.908A1.279,1.279,0,0,0,7.41,5.255Zm-.437,1.38a.667.667,0,1,1,.2-.471A.665.665,0,0,1,6.973,6.635ZM10.2,2.673a5.579,5.579,0,0,0-5.974,9.052.309.309,0,1,0,.474-.4v0l-.019-.02a4.961,4.961,0,0,1,5.31-8.051h0a.309.309,0,1,0,.21-.581Zm.074,2.258a.308.308,0,0,0-.426.088l-3.6,5.463a.308.308,0,0,0,.514.338l3.6-5.463A.308.308,0,0,0,10.273,4.931Zm.739,3.836a1.285,1.285,0,1,0,.376.908A1.281,1.281,0,0,0,11.012,8.767Zm-.437,1.38a.667.667,0,1,1,.2-.471A.665.665,0,0,1,10.575,10.147ZM11.2,3.211a.309.309,0,1,0,.309.309A.309.309,0,0,0,11.2,3.211Zm1.172.9a.309.309,0,1,0-.475.4h0l.02.021a4.961,4.961,0,0,1-5.289,8.063l-.029-.01h0a.309.309,0,1,0-.178.593,5.578,5.578,0,0,0,5.951-9.064Zm0,0a.309.309,0,1,0-.475.4h0l.02.021a4.961,4.961,0,0,1-5.289,8.063l-.029-.01h0a.309.309,0,1,0-.178.593,5.578,5.578,0,0,0,5.951-9.064ZM11.2,3.83a.309.309,0,1,0-.309-.309A.309.309,0,0,0,11.2,3.83ZM10.1,8.391a1.284,1.284,0,1,0,.908.376A1.282,1.282,0,0,0,10.1,8.391Zm.471,1.756a.667.667,0,1,1,.2-.471A.665.665,0,0,1,10.575,10.147Zm-4.243.761a.308.308,0,0,0,.426-.088l3.6-5.463a.307.307,0,1,0-.514-.338l-3.6,5.463A.308.308,0,0,0,6.333,10.908ZM8.3,2.96a4.948,4.948,0,0,1,1.686.294h0a.309.309,0,1,0,.21-.581,5.579,5.579,0,0,0-5.974,9.052.309.309,0,1,0,.474-.4v0l-.019-.02A4.96,4.96,0,0,1,8.3,2.96Zm-2.709,2.3A1.285,1.285,0,1,0,6.5,4.879,1.281,1.281,0,0,0,5.593,5.255Zm1.575.908a.666.666,0,1,1-.2-.471A.665.665,0,0,1,7.168,6.164ZM5.4,12.01a.309.309,0,1,0,.309.309A.309.309,0,0,0,5.4,12.01ZM15.4,7.92c0-.105.147-.29.292-.473a1.242,1.242,0,0,0,.407-.949c-.066-.361-.4-.554-.726-.745-.194-.113-.387-.226-.418-.307a1.2,1.2,0,0,1,.12-.507,1.2,1.2,0,0,0,.069-1.016c-.182-.31-.553-.372-.923-.435a1.18,1.18,0,0,1-.49-.137,1.183,1.183,0,0,1-.052-.506,1.192,1.192,0,0,0-.269-.98,1.191,1.191,0,0,0-1.012-.1,1.2,1.2,0,0,1-.512.035,1.211,1.211,0,0,1-.222-.462C11.534.98,11.406.623,11.066.5a1.213,1.213,0,0,0-1,.241,1.194,1.194,0,0,1-.494.205C9.486.927,9.336.756,9.186.584,8.932.293,8.675,0,8.3,0S7.675.293,7.42.584c-.15.172-.3.342-.391.359A1.2,1.2,0,0,1,6.535.738,1.214,1.214,0,0,0,5.54.5c-.34.127-.467.484-.595.839a1.2,1.2,0,0,1-.222.462,1.2,1.2,0,0,1-.512-.035,1.19,1.19,0,0,0-1.012.1,1.192,1.192,0,0,0-.269.98,1.18,1.18,0,0,1-.051.506,1.186,1.186,0,0,1-.49.137c-.371.062-.742.125-.923.435a1.2,1.2,0,0,0,.069,1.016,1.2,1.2,0,0,1,.12.507c-.03.082-.224.194-.418.307-.329.191-.66.384-.726.746a1.241,1.241,0,0,0,.407.949,1.211,1.211,0,0,1,.292.473c0,.105-.147.29-.292.473a1.24,1.24,0,0,0-.407.949c.066.361.4.554.726.745.194.113.388.226.418.307a1.2,1.2,0,0,1-.12.507,1.2,1.2,0,0,0-.069,1.016c.182.31.553.372.923.435a1.181,1.181,0,0,1,.49.137A1.18,1.18,0,0,1,2.931,13a1.192,1.192,0,0,0,.269.98,1.19,1.19,0,0,0,1.012.1,1.2,1.2,0,0,1,.512-.035,1.2,1.2,0,0,1,.222.462c.127.355.254.712.595.838a1.213,1.213,0,0,0,.995-.241,1.194,1.194,0,0,1,.494-.205c.091.016.241.187.391.359.255.29.511.584.883.584s.629-.293.883-.584c.151-.172.3-.342.391-.359a1.2,1.2,0,0,1,.494.205,1.215,1.215,0,0,0,1,.241c.34-.127.467-.483.594-.839a1.209,1.209,0,0,1,.222-.462,1.2,1.2,0,0,1,.512.035,1.189,1.189,0,0,0,1.012-.1,1.192,1.192,0,0,0,.269-.98,1.183,1.183,0,0,1,.052-.506,1.185,1.185,0,0,1,.49-.137c.371-.062.742-.125.923-.435a1.2,1.2,0,0,0-.069-1.016,1.2,1.2,0,0,1-.12-.507c.031-.082.224-.194.418-.307.329-.191.66-.384.726-.746a1.242,1.242,0,0,0-.407-.949C15.542,8.21,15.4,8.025,15.4,7.92Zm.093,1.313c-.015.08-.222.2-.429.321a1.39,1.39,0,0,0-.686.626,1.38,1.38,0,0,0,.115.927c.078.22.156.439.12.5s-.265.1-.494.138a1.359,1.359,0,0,0-.859.347,1.359,1.359,0,0,0-.2.907c0,.231,0,.462-.052.507a1.141,1.141,0,0,1-.508-.036,1.364,1.364,0,0,0-.93.042,1.37,1.37,0,0,0-.492.785c-.079.222-.158.444-.228.469s-.275-.088-.481-.2a1.415,1.415,0,0,0-.9-.273,1.43,1.43,0,0,0-.746.559c-.162.185-.325.372-.419.372s-.258-.187-.42-.372a1.428,1.428,0,0,0-.746-.559,1.414,1.414,0,0,0-.9.273c-.206.114-.411.228-.481.2s-.148-.248-.227-.469a1.367,1.367,0,0,0-.492-.785,1.365,1.365,0,0,0-.929-.042,1.146,1.146,0,0,1-.508.036c-.054-.046-.053-.277-.052-.507a1.359,1.359,0,0,0-.2-.907,1.36,1.36,0,0,0-.859-.347c-.229-.038-.458-.077-.494-.138s.042-.28.12-.5a1.382,1.382,0,0,0,.115-.927,1.391,1.391,0,0,0-.686-.626c-.207-.12-.415-.241-.429-.321s.134-.268.284-.456a1.47,1.47,0,0,0,.427-.857A1.469,1.469,0,0,0,1.4,7.063c-.15-.189-.3-.376-.284-.457s.222-.2.429-.321a1.393,1.393,0,0,0,.686-.626,1.381,1.381,0,0,0-.115-.927c-.078-.22-.156-.439-.12-.5s.265-.1.494-.138a1.362,1.362,0,0,0,.859-.347,1.36,1.36,0,0,0,.2-.907c0-.231,0-.462.052-.507a1.139,1.139,0,0,1,.508.036,1.363,1.363,0,0,0,.929-.042,1.369,1.369,0,0,0,.492-.785c.079-.222.158-.443.227-.469s.275.088.481.2a1.414,1.414,0,0,0,.9.273A1.429,1.429,0,0,0,7.883.989C8.045.8,8.209.618,8.3.618s.257.187.419.372a1.429,1.429,0,0,0,.746.559,1.415,1.415,0,0,0,.9-.273c.206-.114.411-.228.481-.2s.148.248.228.469a1.367,1.367,0,0,0,.492.785,1.363,1.363,0,0,0,.929.042,1.139,1.139,0,0,1,.508-.036c.054.045.053.276.052.507a1.36,1.36,0,0,0,.2.907,1.361,1.361,0,0,0,.859.347c.229.039.458.077.494.138s-.042.279-.12.5a1.379,1.379,0,0,0-.115.927,1.392,1.392,0,0,0,.686.626c.207.12.415.241.429.321s-.134.268-.284.457a1.471,1.471,0,0,0-.427.857,1.472,1.472,0,0,0,.427.857C15.354,8.965,15.5,9.152,15.488,9.233ZM12.137,4a.309.309,0,0,0-.236.509h0l.02.021a4.961,4.961,0,0,1-5.289,8.063l-.029-.01h0a.309.309,0,1,0-.178.593,5.578,5.578,0,0,0,5.951-9.064A.309.309,0,0,0,12.137,4ZM11.2,3.83a.309.309,0,1,0-.309-.309A.309.309,0,0,0,11.2,3.83ZM9.2,8.767a1.285,1.285,0,1,0,.908-.376A1.282,1.282,0,0,0,9.2,8.767Zm1.575.908a.666.666,0,1,1-.2-.471A.665.665,0,0,1,10.771,9.676ZM6.333,10.908a.308.308,0,0,0,.426-.088l3.6-5.463a.307.307,0,1,0-.514-.338l-3.6,5.463A.308.308,0,0,0,6.333,10.908ZM9.989,3.254h0a.309.309,0,1,0,.21-.581,5.579,5.579,0,0,0-5.974,9.052.309.309,0,1,0,.474-.4v0l-.019-.02a4.961,4.961,0,0,1,5.31-8.051ZM7.41,7.072a1.284,1.284,0,1,0-.908.376A1.28,1.28,0,0,0,7.41,7.072ZM5.835,6.164a.666.666,0,1,1,.195.471A.666.666,0,0,1,5.835,6.164ZM5.4,12.01a.309.309,0,1,0,.309.309A.309.309,0,0,0,5.4,12.01Zm6.972-7.9a.309.309,0,1,0-.475.4h0l.02.021a4.961,4.961,0,0,1-5.289,8.063l-.029-.01h0a.309.309,0,1,0-.178.593,5.578,5.578,0,0,0,5.951-9.064Zm-1.172-.9a.309.309,0,1,0,.309.309A.309.309,0,0,0,11.2,3.211Zm-1-.538a5.579,5.579,0,0,0-5.974,9.052.309.309,0,1,0,.474-.4v0l-.019-.02a4.961,4.961,0,0,1,5.31-8.051h0a.309.309,0,1,0,.21-.581ZM5.4,12.01a.309.309,0,1,0,.309.309A.309.309,0,0,0,5.4,12.01ZM7.41,5.255a1.284,1.284,0,1,0,.376.908A1.279,1.279,0,0,0,7.41,5.255Zm-.437,1.38a.667.667,0,1,1,.2-.471A.665.665,0,0,1,6.973,6.635Zm3.3-1.7a.308.308,0,0,0-.426.088l-3.6,5.463a.308.308,0,0,0,.514.338l3.6-5.463A.308.308,0,0,0,10.273,4.931Zm.739,3.836a1.285,1.285,0,1,0,.376.908A1.281,1.281,0,0,0,11.012,8.767Zm-.437,1.38a.667.667,0,1,1,.2-.471A.665.665,0,0,1,10.575,10.147ZM5.4,12.01a.309.309,0,1,0,.309.309A.309.309,0,0,0,5.4,12.01ZM7.41,5.255a1.284,1.284,0,1,0,.376.908A1.279,1.279,0,0,0,7.41,5.255Zm-.437,1.38a.667.667,0,1,1,.2-.471A.665.665,0,0,1,6.973,6.635ZM10.2,2.673a5.579,5.579,0,0,0-5.974,9.052.309.309,0,1,0,.474-.4v0l-.019-.02a4.961,4.961,0,0,1,5.31-8.051h0a.309.309,0,1,0,.21-.581Zm.074,2.258a.308.308,0,0,0-.426.088l-3.6,5.463a.308.308,0,0,0,.514.338l3.6-5.463A.308.308,0,0,0,10.273,4.931Zm.739,3.836a1.285,1.285,0,1,0,.376.908A1.281,1.281,0,0,0,11.012,8.767Zm-.437,1.38a.667.667,0,1,1,.2-.471A.665.665,0,0,1,10.575,10.147ZM11.2,3.211a.309.309,0,1,0,.309.309A.309.309,0,0,0,11.2,3.211Zm1.172.9a.309.309,0,1,0-.475.4h0l.02.021a4.961,4.961,0,0,1-5.289,8.063l-.029-.01h0a.309.309,0,1,0-.178.593,5.578,5.578,0,0,0,5.951-9.064Z" transform="translate(-0.501)" fill="#50b848"/>
</svg>
