<svg xmlns="http://www.w3.org/2000/svg" width="16.89" height="13.597" viewBox="0 0 16.89 13.597">
  <g id="Group_755" data-name="Group 755" transform="translate(431.85 -488.607)">
    <path id="Path_646" data-name="Path 646" d="M-421.7,501.33a2.476,2.476,0,0,0,0,.278,1.768,1.768,0,0,0,.031.247.356.356,0,0,0,.105.2.323.323,0,0,0,.216.068h3.363a2.915,2.915,0,0,0,2.138-.888,2.915,2.915,0,0,0,.888-2.138v-7.4a2.913,2.913,0,0,0-.888-2.138,2.915,2.915,0,0,0-2.138-.888h-3.363a.327.327,0,0,0-.237.1.327.327,0,0,0-.1.237c0,.028,0,.1-.011.21a2.479,2.479,0,0,0,0,.278,1.749,1.749,0,0,0,.031.247.353.353,0,0,0,.105.205.318.318,0,0,0,.216.069h3.363a1.615,1.615,0,0,1,1.187.494,1.615,1.615,0,0,1,.494,1.187v7.4a1.615,1.615,0,0,1-.494,1.187,1.619,1.619,0,0,1-1.187.494h-3.279l-.121.011c-.081.006-.121.017-.121.031s-.028.033-.084.058-.081.056-.073.094a.276.276,0,0,1-.022.142C-421.686,501.147-421.689,501.217-421.7,501.33Z" fill="#50b848"/>
    <g id="Group_754" data-name="Group 754">
      <path id="Path_647" data-name="Path 647" d="M-425.048,502.2a1.056,1.056,0,0,1-.765-.322l-5.716-5.716a1.056,1.056,0,0,1-.321-.764,1.061,1.061,0,0,1,.321-.764l5.717-5.716a1.084,1.084,0,0,1,1.528,0,1.061,1.061,0,0,1,.32.764V492.3h4.3a1.061,1.061,0,0,1,.764.32,1.063,1.063,0,0,1,.32.764v4.036a1.061,1.061,0,0,1-.32.764,1.06,1.06,0,0,1-.764.32h-4.3v2.615a1.063,1.063,0,0,1-.32.764A1.061,1.061,0,0,1-425.048,502.2Zm0-12.78a.232.232,0,0,0-.181.079l-5.718,5.718a.237.237,0,0,0-.08.181.232.232,0,0,0,.079.181l5.718,5.718a.237.237,0,0,0,.363,0,.233.233,0,0,0,.079-.182v-3.438h5.12a.238.238,0,0,0,.183-.08.235.235,0,0,0,.078-.181v-4.036a.234.234,0,0,0-.079-.181.233.233,0,0,0-.182-.079h-5.12v-3.438a.232.232,0,0,0-.079-.182A.234.234,0,0,0-425.048,489.424Z" fill="#50b848"/>
    </g>
  </g>
</svg>
