<svg xmlns="http://www.w3.org/2000/svg" width="18.448" height="24.054" viewBox="0 0 18.448 24.054">
  <g id="Group_411" data-name="Group 411" transform="translate(-673.422 -596.934)">
    <g id="Group_406" data-name="Group 406">
      <path id="Path_338" data-name="Path 338" d="M673.422,614.744a.639.639,0,1,1,1.278,0v4.967h15.893v-21.5H679.956l.04,4.311a.777.777,0,0,1-.778.785h-4.813a.778.778,0,0,1-.542-1.336l5.19-5.038H691.87v24.054H673.422Zm5.265-15.675-3.051,2.962h3.078Z" fill="#50b848"/>
    </g>
    <g id="Group_407" data-name="Group 407">
      <path id="Path_339" data-name="Path 339" d="M677.733,606.442h9.827a.639.639,0,0,0,0-1.277h-9.827a.639.639,0,1,0,0,1.277Z" fill="#50b848"/>
    </g>
    <g id="Group_408" data-name="Group 408">
      <path id="Path_340" data-name="Path 340" d="M681.1,609.954h6.457a.638.638,0,0,0,0-1.277H681.1a.638.638,0,0,0,0,1.277Z" fill="#50b848"/>
    </g>
    <g id="Group_409" data-name="Group 409">
      <path id="Path_341" data-name="Path 341" d="M683.125,613.4h4.435a.638.638,0,0,0,0-1.277h-4.435a.638.638,0,0,0,0,1.277Z" fill="#50b848"/>
    </g>
    <g id="Group_410" data-name="Group 410">
      <path id="Path_342" data-name="Path 342" d="M683.906,616.872h3.654a.639.639,0,0,0,0-1.277h-3.654a.639.639,0,1,0,0,1.277Z" fill="#50b848"/>
    </g>
  </g>
</svg>
