<svg id="icon_event" xmlns="http://www.w3.org/2000/svg" width="18.299" height="16.973" viewBox="0 0 18.299 16.973">
  <g id="Group_19" data-name="Group 19">
    <g id="Group_18" data-name="Group 18">
      <path id="Path_17" data-name="Path 17" d="M-583.851-129.247l-3.2,3.111a.485.485,0,0,0-.115.529.482.482,0,0,0,.445.3h2.98a.485.485,0,0,0,.338-.146.463.463,0,0,0,.138-.337l-.023-2.666h6.575v13.28h-9.824v-3.066a.4.4,0,0,0-.391-.4.4.4,0,0,0-.4.4v3.855h11.4v-14.858Zm-2.107,3.149,1.885-1.831.015,1.831Z" transform="translate(587.33 129.247)" fill="#6ca044"/>
    </g>
    <path id="Path_18" data-name="Path 18" d="M-576.309-128.151v.843h6.437v14.192h-10.49v-2.061h-.843v2.9h12.176v-15.878Z" transform="translate(587.328 129.247)" fill="#6ca044"/>
    <path id="Path_19" data-name="Path 19" d="M-577.969-123.978h-6.1a.289.289,0,0,0-.289.288.289.289,0,0,0,.289.289h6.1a.288.288,0,0,0,.288-.289A.288.288,0,0,0-577.969-123.978Z" transform="translate(587.329 129.245)" fill="#6ca044"/>
    <path id="Path_20" data-name="Path 20" d="M-577.919-121.767h-5.033a.267.267,0,0,0-.238.289.267.267,0,0,0,.238.288h5.033a.267.267,0,0,0,.238-.288A.267.267,0,0,0-577.919-121.767Z" transform="translate(587.329 129.244)" fill="#6ca044"/>
    <path id="Path_21" data-name="Path 21" d="M-577.892-119.459h-4.456c-.116,0-.211.129-.211.289s.095.288.211.288h4.456c.116,0,.211-.129.211-.288S-577.776-119.459-577.892-119.459Z" transform="translate(587.328 129.244)" fill="#6ca044"/>
    <path id="Path_22" data-name="Path 22" d="M-570.465-121.628h-4.25c-.111,0-.2.119-.2.267a.24.24,0,0,0,.2.266h4.25a.24.24,0,0,0,.2-.266C-570.265-121.509-570.355-121.628-570.465-121.628Z" transform="translate(587.326 129.244)" fill="#6ca044"/>
    <path id="Path_23" data-name="Path 23" d="M-570.43-119.587h-3.507c-.092,0-.166.119-.166.266s.074.266.166.266h3.507c.092,0,.166-.119.166-.266S-570.338-119.587-570.43-119.587Z" transform="translate(587.326 129.244)" fill="#6ca044"/>
    <path id="Path_24" data-name="Path 24" d="M-570.411-117.458h-3.1c-.081,0-.147.119-.147.266s.066.266.147.266h3.1c.081,0,.147-.119.147-.266S-570.33-117.458-570.411-117.458Z" transform="translate(587.325 129.243)" fill="#6ca044"/>
  </g>
</svg>
