<svg xmlns="http://www.w3.org/2000/svg" width="15.91" height="17.395" viewBox="0 0 15.91 17.395">
  <g id="Group_765" data-name="Group 765" transform="translate(430.62 -344.98)">
    <g id="Group_764" data-name="Group 764">
      <g id="Group_763" data-name="Group 763">
        <path id="Path_651" data-name="Path 651" d="M-421.842,360.352h-2.842a.377.377,0,0,0-.361.492,1.881,1.881,0,0,0,1.782,1.281,1.881,1.881,0,0,0,1.782-1.281A.377.377,0,0,0-421.842,360.352Z" fill="none" stroke="#50b848" stroke-miterlimit="10" stroke-width="0.5"/>
        <path id="Path_652" data-name="Path 652" d="M-416.869,359.4H-429.5a1.356,1.356,0,0,1-.36-.06.755.755,0,0,1-.36-1.15l1.44-1.18.3-.25.01-.2v-4.54a5.144,5.144,0,0,1,.89-2.89,5.2,5.2,0,0,1,3.1-2.15v-.54a1.173,1.173,0,0,1,.19-.64,1.2,1.2,0,0,1,1.02-.57,1.206,1.206,0,0,1,1.2,1.21v.54c.11.03.21.06.31.09.13.04.26.09.38.14a3.953,3.953,0,0,0-.71,2.28,3.988,3.988,0,0,0,3.99,3.99v3.1l1.93,1.58A.778.778,0,0,1-416.869,359.4Z" fill="none" stroke="#50b848" stroke-miterlimit="10" stroke-width="0.5"/>
      </g>
    </g>
    <text id="_1" data-name="1" transform="translate(-418.094 351.643)" fill="#50b848" font-size="6.145" font-family="MicrosoftSansSerif, Microsoft Sans Serif" letter-spacing="0.02em"><tspan x="-1.709" y="0">1</tspan></text>
    <path id="Path_653" data-name="Path 653" d="M-414.96,349.487a3.137,3.137,0,0,1-2.363,3.03,2.947,2.947,0,0,1-.772.105,3.137,3.137,0,0,1-3.135-3.135,3.131,3.131,0,0,1,3.135-3.135,2.99,2.99,0,0,1,.772.1A3.121,3.121,0,0,1-414.96,349.487Z" fill="none" stroke="#50b848" stroke-miterlimit="10" stroke-width="0.5"/>
  </g>
</svg>
