<svg xmlns="http://www.w3.org/2000/svg" width="21.737" height="21.737" viewBox="0 0 21.737 21.737">
  <g id="Group_218" data-name="Group 218" transform="translate(-16 -16)">
    <path id="Path_167" data-name="Path 167" d="M37.375,18.174H36.288v-.362a.362.362,0,0,0-.362-.362H33.39v-.362a1.087,1.087,0,1,0-2.174,0v.362h-.725v-.362a1.087,1.087,0,1,0-2.174,0v.362H23.97v-.362a1.087,1.087,0,0,0-2.174,0v.362h-.725v-.362a1.087,1.087,0,1,0-2.174,0v.362H16.362a.362.362,0,0,0-.362.362V35.926a.362.362,0,0,0,.362.362h.362v1.087a.362.362,0,0,0,.362.362H37.375a.362.362,0,0,0,.362-.362V18.536A.362.362,0,0,0,37.375,18.174Zm-20.65,17.39V22.521H35.564V35.564ZM31.941,17.087a.362.362,0,0,1,.725,0v.362h-.725Zm-2.9,0a.362.362,0,0,1,.725,0v.362h-.725Zm-6.521,0a.362.362,0,0,1,.725,0v.362h-.725Zm-2.9,0a.362.362,0,0,1,.725,0v.362h-.725ZM18.9,18.174v.362a1.088,1.088,0,0,0,1.087,1.087.362.362,0,0,0,0-.725.363.363,0,0,1-.362-.362v-.362H21.8v.362a1.088,1.088,0,0,0,1.087,1.087.362.362,0,1,0,0-.725.363.363,0,0,1-.362-.362v-.362h5.8v.362A1.088,1.088,0,0,0,29.4,19.623a.362.362,0,0,0,0-.725.363.363,0,0,1-.362-.362v-.362h2.174v.362A1.088,1.088,0,0,0,32.3,19.623a.362.362,0,1,0,0-.725.363.363,0,0,1-.362-.362v-.362h3.623V21.8H16.725V18.174ZM37.013,37.013H17.449v-.725H35.926a.362.362,0,0,0,.362-.362V18.9h.725Z" fill="#50b848"/>
    <path id="Path_168" data-name="Path 168" d="M145.4,203.142a.362.362,0,0,0-.3-.242l-2.719-.34-1.359-2.379a.362.362,0,0,0-.629,0l-1.359,2.379-2.719.34a.362.362,0,0,0-.211.616l2.048,2.048-.34,2.722a.362.362,0,0,0,.539.359l2.356-1.346,2.356,1.346a.362.362,0,0,0,.539-.359l-.34-2.723,2.048-2.048A.362.362,0,0,0,145.4,203.142Zm-2.773,2.035a.362.362,0,0,0-.1.3l.272,2.179-1.907-1.09a.362.362,0,0,0-.359,0l-1.907,1.09.272-2.179a.362.362,0,0,0-.1-.3l-1.65-1.65,2.163-.27a.362.362,0,0,0,.27-.18l1.135-1.985,1.135,1.986a.362.362,0,0,0,.27.18l2.163.27Z" transform="translate(-114.565 -175.666)" fill="#50b848"/>
  </g>
</svg>
