<svg xmlns="http://www.w3.org/2000/svg" enable-background="new 0 0 512 512" viewBox="0 0 512 512"><path d="M420.5,174.6l89.3-89.3c2.9-2.9,2.9-7.7,0-10.6c-2.9-2.9-7.7-2.9-10.6,0L409.8,164c0,0,0,0,0,0l-20.7,20.7
	c-6.4-3.9-15.3-5.1-24-6.2c-6.1-0.8-13.5-1.8-17.4-3.7L473.6,49.1c2.9-2.9,2.9-7.7,0-10.6c-2.9-2.9-7.7-2.9-10.6,0L341.8,159.6
	c-0.2-1.7-0.5-3.3-0.7-4.9c-1.7-12.8-3.4-26-13.9-31.3c-0.1-0.1-0.3-0.1-0.4-0.2l8.9-8.9c0,0,0,0,0.1-0.1L437.3,12.8
	c2.9-2.9,2.9-7.7,0-10.6c-2.9-2.9-7.7-2.9-10.6,0L325.2,103.7c0,0,0,0-0.1,0.1l-22.8,22.8c-2.6,1.3-5.1,2.7-7.7,4
	c-6.6,3.6-14.8,8-19,7.4c-4.2-0.7-10.7-7.4-15.8-12.8c-8.7-9.1-17.7-18.5-28.8-16.8c-11.6,1.8-17.2,13.9-22.8,25.6
	c-3.1,6.5-7,14.7-10.4,16.5c-2,1-5.6,1-9.6,0.5L39.9,2.7c-2-2-5-2.7-7.7-1.8c-2.7,0.9-4.7,3.2-5.1,6.1c-4.7,33-1.6,67.1,8.9,98.7
	c10.5,31.6,28.5,60.7,52.1,84.3l30.4,30.4c-8.8,4.6-16.8,10.3-18.3,19.5c-1.8,11.7,8.4,21.4,17.4,29.9c5.2,4.9,11.7,11,12.3,14.7
	c0.7,4.1-3.7,12.2-7.2,18.7c-6,11.2-12.3,22.8-7,33c0.5,1,1.1,1.9,1.7,2.7L15.4,431.4c-0.1,0.1-0.2,0.2-0.3,0.2l-1.6,1.6
	C4.9,442,0,453.5,0,465.9c0,12.4,4.7,24,13.4,32.7c8.7,8.7,20.2,13.5,32.5,13.5c0.4,0,0.9,0,1.3,0c12.9-0.4,24.7-5.9,33.3-15.4
	l94.4-103.7c2,5.1,4.9,9.3,9.8,11.8c10.1,5.1,21.5-1.1,32.6-7.2c6.6-3.6,14.8-8,19-7.4c4.2,0.7,10.7,7.4,15.8,12.8
	c8,8.4,16.2,17,26.1,17c0.9,0,1.8-0.1,2.7-0.2c11.6-1.8,17.2-13.9,22.8-25.6c1-2,2-4.2,3.1-6.4l91.3,107.2
	c9,10.6,22.2,16.7,36.1,16.7c12.7,0,24.6-4.9,33.6-13.9c18.5-18.5,18.5-48.6,0-67.1l-98.4-98.4c-0.6-4.3-0.7-8.3,0.4-10.4
	c1.7-3.3,9.7-7.2,16.2-10.2c11.2-5.3,23.9-11.4,25.7-23.1v0c1.8-11.7-8.4-21.4-17.4-29.9c-5.2-4.9-11.7-11-12.3-14.7
	c-0.7-4.1,3.7-12.2,7.2-18.7c5.1-9.4,10.3-19.1,8.7-28L420.5,174.6C420.4,174.7,420.5,174.6,420.5,174.6z M98.8,179.2
	c-21.9-21.9-38.7-49-48.5-78.4c-8.2-24.5-11.5-50.6-9.9-76.4l122.8,122.8c-7.3-0.4-14,0.7-18.9,5.6c-8.1,8.1-5.7,21-3.4,33.5
	c1.4,7.3,3,16.3,1.2,20c-1.1,2.2-5,4.6-9.4,6.9L98.8,179.2z M69.4,486.5c-5.9,6.5-13.9,10.3-22.6,10.5c-8.6,0.2-16.7-3-22.8-9.1
	c-5.9-5.9-9.1-13.7-9-22c0-8.3,3.3-16.2,9.2-22l1.5-1.5l105.2-95.7c5,1.4,10.5,2.1,16,2.8c7.3,0.9,16.3,2.1,19.1,4.9
	c2.8,2.8,4,11.7,4.9,18.9c0.1,0.5,0.1,1,0.2,1.5L69.4,486.5z M373.2,357.1l84.1,84c12.7,12.7,12.7,33.3,0,45.9
	c-6.1,6.1-14.3,9.5-23,9.5c-9.5,0-18.5-4.2-24.7-11.4l-92.3-108.3c4.4-0.4,11,0.8,16.6,1.9c12.6,2.3,25.6,4.7,33.8-3.5
	C372.4,370.5,373.5,364.1,373.2,357.1z M376,218c-0.4,0.7-0.8,1.5-1.2,2.2c-4.6,8.7-8.9,17.5-7.6,25.9c1.4,8.8,9.2,16.1,16.8,23.2
	c5.7,5.4,13.5,12.7,12.9,16.6c-0.6,3.9-10.3,8.5-17.3,11.9c-9.4,4.5-19.1,9.1-23.1,17c-4.2,8.2-2.1,19-0.2,29.5
	c1.3,7,3.3,17.7,0.8,20.2c-2.6,2.6-13.3,0.6-20.4-0.7c-10.4-1.9-21.2-3.9-29.3,0.3c-2.7,1.4-4.9,3.4-7,5.8c-0.2,0.2-0.3,0.4-0.4,0.5
	c-3.9,4.8-6.8,11-9.7,17.1c-3.1,6.6-7.8,16.6-11.6,17.2c-3.4,0.5-10.7-7.2-15.6-12.3c-7.4-7.8-15.1-15.9-24.4-17.3
	c-1-0.2-2.1-0.2-3.2-0.2c-8.3,0-16.9,4.7-25.3,9.3c-6.2,3.4-15.6,8.5-18.6,6.9c-3.4-1.7-4.8-12.6-5.8-19.9
	c-1.4-10.4-2.8-21.2-9.2-27.5c-6.5-6.4-17.3-7.8-27.8-9.2c-5.2-0.7-12.2-1.6-16.4-3.3c-0.2-0.1-0.4-0.2-0.6-0.3
	c-1.3-0.6-2.2-1.3-2.6-2.1c-1.6-3.2,3.5-12.7,6.9-19c5-9.4,10.3-19.1,8.8-28.1c-1.4-8.8-9.2-16.1-16.8-23.2
	c-5.7-5.4-13.5-12.7-12.9-16.6c0.6-3.9,10.3-8.5,17.3-11.9c0.7-0.4,1.5-0.7,2.2-1.1c0,0,0.1,0,0.1,0c8.6-4.1,17.1-8.6,20.7-15.9
	c4.2-8.2,2.1-19,0.2-29.5c-1.3-7-3.3-17.7-0.8-20.2c2.6-2.6,13.3-0.6,20.4,0.7c10.4,1.9,21.2,3.9,29.3-0.3
	c8-4.1,12.7-13.9,17.1-23.4c3.1-6.6,7.8-16.6,11.6-17.2c3.4-0.5,10.7,7.2,15.6,12.3c7.4,7.8,15.1,15.9,24.4,17.3
	c3,0.5,6.1,0.2,9.2-0.5c6.4-1.5,12.9-5,19.3-8.5c2.7-1.5,6.1-3.3,9.2-4.8c4-1.8,7.7-3,9.3-2.2c3.4,1.7,4.8,12.6,5.8,19.9
	c1.4,10.4,2.8,21.2,9.2,27.5c6.5,6.4,17.3,7.8,27.8,9.2c4.5,0.6,10.4,1.3,14.6,2.6c2.5,0.8,4.4,1.7,5.1,3
	C384.5,202.2,379.4,211.7,376,218z M296.5,222.5c-2.9-2.9-7.7-2.9-10.6,0l-71.4,71.4c-2.9,2.9-2.9,7.7,0,10.6
	c1.5,1.5,3.4,2.2,5.3,2.2s3.8-0.7,5.3-2.2l71.4-71.4C299.4,230.2,299.4,225.4,296.5,222.5z M256,162.4c-56,0-101.6,45.6-101.6,101.6
	c0,56,45.6,101.6,101.6,101.6S357.6,320,357.6,264C357.6,208,312,162.4,256,162.4z M256,350.6c-47.8,0-86.6-38.9-86.6-86.6
	s38.9-86.6,86.6-86.6s86.6,38.9,86.6,86.6S303.8,350.6,256,350.6z M271.4,279.4c-8.8,8.8-8.8,23,0,31.8c4.4,4.4,10.1,6.6,15.9,6.6
	c5.8,0,11.5-2.2,15.9-6.6c0,0,0,0,0,0c8.8-8.8,8.8-23,0-31.8S280.2,270.6,271.4,279.4z M292.6,300.6c-2.9,2.9-7.7,2.9-10.6,0
	c-2.9-2.9-2.9-7.7,0-10.6c1.5-1.5,3.4-2.2,5.3-2.2c1.9,0,3.8,0.7,5.3,2.2C295.5,292.9,295.5,297.7,292.6,300.6z M240.6,248.6
	C240.6,248.6,240.6,248.6,240.6,248.6c8.8-8.8,8.8-23,0-31.8c-8.8-8.8-23-8.8-31.8,0c-8.8,8.8-8.8,23,0,31.8
	c4.4,4.4,10.1,6.6,15.9,6.6C230.5,255.2,236.2,253,240.6,248.6z M219.4,227.4c1.5-1.5,3.4-2.2,5.3-2.2c1.9,0,3.8,0.7,5.3,2.2
	c2.9,2.9,2.9,7.7,0,10.6l0,0c-2.9,2.9-7.7,2.9-10.6,0C216.5,235.1,216.5,230.3,219.4,227.4z"/></svg>