<svg id="Group_850" data-name="Group 850" xmlns="http://www.w3.org/2000/svg" width="21.883" height="21.871" viewBox="0 0 21.883 21.871">
  <g id="Group_308" data-name="Group 308" transform="translate(0 0)">
    <g id="Group_307" data-name="Group 307">
      <path id="Path_212" data-name="Path 212" d="M18.678,3.2A10.946,10.946,0,0,0,3.2,3.2a10.935,10.935,0,0,0,7.737,18.668A10.934,10.934,0,0,0,18.678,3.2ZM10.941,20.589A9.654,9.654,0,1,1,20.6,10.935,9.667,9.667,0,0,1,10.941,20.589Z" transform="translate(0 0)" fill="#50b848"/>
    </g>
  </g>
  <g id="Group_310" data-name="Group 310" transform="translate(6.191 1.37)">
    <g id="Group_309" data-name="Group 309" transform="translate(0 0)">
      <path id="Path_213" data-name="Path 213" d="M182.448,105.067h-1.926a1.99,1.99,0,0,1,0-3.979h3.852a.9.9,0,1,0,0-1.8h-1.99V97.3a.9.9,0,1,0-1.8,0v1.99h-.064a3.788,3.788,0,1,0,0,7.575h1.926a1.99,1.99,0,0,1,0,3.979H178.6a.9.9,0,0,0,0,1.8h1.99v1.99a.9.9,0,0,0,1.8,0v-1.99h.064a3.788,3.788,0,0,0,0-7.575Z" transform="translate(-176.734 -96.401)" fill="#50b848"/>
    </g>
  </g>
</svg>
