<svg xmlns="http://www.w3.org/2000/svg" width="17.85" height="17.957" viewBox="0 0 17.85 17.957">
  <path id="Path_244" data-name="Path 244" d="M676.06,330.092c2.727,0,5.02-2.785,5.02-6.168a6.883,6.883,0,0,0-1.473-4.313,4.454,4.454,0,0,0-3.547-1.854c-2.785,0-5.022,2.784-5.022,6.167s2.237,6.168,5.022,6.168Zm0-11.19c2.125,0,3.875,2.238,3.875,5.022s-1.75,5.022-3.875,5.022c-2.184,0-3.934-2.237-3.934-5.022s1.75-5.022,3.934-5.022Zm-3.934,10.044a5.093,5.093,0,0,0-5.02,5.077,1.7,1.7,0,0,0,1.693,1.691h14.465a1.7,1.7,0,0,0,1.692-1.691,5.057,5.057,0,0,0-5.021-5.077.6.6,0,0,0-.547.6.586.586,0,0,0,.547.544,3.912,3.912,0,0,1,3.929,3.931.6.6,0,0,1-.6.546H668.8a.549.549,0,0,1-.547-.546,3.9,3.9,0,0,1,3.874-3.931.548.548,0,0,0,.549-.544.562.562,0,0,0-.549-.6Z" transform="translate(-667.106 -317.757)" fill="#50b848" fill-rule="evenodd"/>
</svg>
