<svg xmlns="http://www.w3.org/2000/svg" width="11.422" height="19.849" viewBox="0 0 11.422 19.849">
  <g id="Group_753" data-name="Group 753" transform="translate(426.382 -414.145)">
    <rect id="Rectangle_194" data-name="Rectangle 194" width="1.024" height="2.938" rx="0.512" transform="translate(-418.536 414.145)" fill="#50b848"/>
    <path id="Path_644" data-name="Path 644" d="M-416.839,416.552H-424.5a1.881,1.881,0,0,0-1.88,1.879v13.684a1.881,1.881,0,0,0,1.88,1.879h7.663a1.881,1.881,0,0,0,1.879-1.879V418.431a1.881,1.881,0,0,0-1.879-1.879Zm-7.663,1.022h7.663a.857.857,0,0,1,.857.857v10.163h-9.378V418.431a.858.858,0,0,1,.858-.857Zm7.663,15.4H-424.5a.858.858,0,0,1-.858-.857v-2.5h9.378v2.5a.857.857,0,0,1-.857.857Zm0,0" fill="#50b848"/>
    <g id="Group_752" data-name="Group 752">
      <circle id="Ellipse_49" data-name="Ellipse 49" cx="0.096" cy="0.096" r="0.096" transform="translate(-420.767 431.198)" fill="none"/>
      <path id="Path_645" data-name="Path 645" d="M-420.671,430.112a1.183,1.183,0,0,0-1.182,1.182,1.183,1.183,0,0,0,1.182,1.182,1.184,1.184,0,0,0,1.183-1.182A1.184,1.184,0,0,0-420.671,430.112Zm0,1.6a.414.414,0,0,1-.413-.413.414.414,0,0,1,.413-.413.413.413,0,0,1,.413.413A.413.413,0,0,1-420.671,431.707Z" fill="#50b848"/>
    </g>
  </g>
</svg>
