<svg xmlns="http://www.w3.org/2000/svg" width="16.806" height="18.221" viewBox="0 0 16.806 18.221">
  <g id="Group_797" data-name="Group 797" transform="translate(431.766 -379.128)">
    <g id="Group_796" data-name="Group 796">
      <g id="Group_795" data-name="Group 795">
        <g id="Group_793" data-name="Group 793">
          <path id="Path_663" data-name="Path 663" d="M-430.172,397.349a1.6,1.6,0,0,1-1.594-1.6,1.654,1.654,0,0,1,.019-.245,1.464,1.464,0,0,1,.063-.26c.17-.666.567-1.876.758-2.458a2.052,2.052,0,0,1,.093-.294l.024-.058a1.578,1.578,0,0,1,.63-.7l.1-.053c.5-.237,1.835-.771,1.891-.794.679-.291,1.373-.542,2.144-.815l.275-.1.068.283c.088.36.678,2.11,1.111,3.357l.091-1.936c-.028-.05-.052-.1-.076-.156l-1.074-2.126.946.758a2.412,2.412,0,0,0,2.672-.02l.981-.823-1.094,2.163c-.033.075-.063.143-.1.2l.092,1.937c.435-1.255,1.024-3.009,1.111-3.362l.068-.281.274.1c.7.248,1.446.514,2.152.82.049.02,1.386.554,1.835.766a1.158,1.158,0,0,1,.166.088,1.611,1.611,0,0,1,.615.691l.024.059a1.51,1.51,0,0,1,.087.282c.163.487.581,1.771.769,2.484a1.91,1.91,0,0,1,.058.242l.027.214a1.6,1.6,0,0,1-1.592,1.63Zm-.146-4.72-.012.03a1.119,1.119,0,0,0-.075.225l-.021.071c-.19.577-.583,1.774-.754,2.441a1.031,1.031,0,0,0-.047.186,1.182,1.182,0,0,0-.014.172,1.07,1.07,0,0,0,1.069,1.069l13.62,0a1.07,1.07,0,0,0,1.069-1.069l-.022-.165a1.408,1.408,0,0,0-.045-.178c-.192-.734-.639-2.1-.771-2.5a1.251,1.251,0,0,0-.083-.253l-.017-.039a1.124,1.124,0,0,0-.4-.434l-.1-.049c-.44-.208-1.805-.753-1.818-.759-.613-.265-1.232-.493-1.862-.716-.314,1.03-1.333,3.986-1.5,4.4l-.45,1.132-.219-4.646.048-.071a1.37,1.37,0,0,0,.093-.188l.164-.325a3.1,3.1,0,0,1-1.8.006l.17.343a1.648,1.648,0,0,0,.087.173l.043.069-.219,4.652-.449-1.141c-.17-.433-1.183-3.368-1.495-4.4-.659.235-1.263.458-1.855.712-.02.009-1.385.554-1.821.76l-.11.056A1.066,1.066,0,0,0-430.318,392.629Z" fill="#50b848"/>
        </g>
        <g id="Group_794" data-name="Group 794">
          <path id="Path_664" data-name="Path 664" d="M-423.372,389.967l-.074,0a3.6,3.6,0,0,1-1.9-.9,5.258,5.258,0,0,1-1.509-2.324.694.694,0,0,1-.364-.116c-.364-.238-.582-.8-.665-1.735a.983.983,0,0,1,.231-.823.808.808,0,0,1,.534-.217c-.005-.124-.011-.269-.017-.409-.011-.259-.022-.507-.022-.6a3.717,3.717,0,0,1,3.712-3.713h.151a3.718,3.718,0,0,1,3.719,3.713c0,.1-.01.344-.021.6-.006.141-.013.286-.018.41a.8.8,0,0,1,.533.216.983.983,0,0,1,.232.823c-.084.932-.3,1.5-.667,1.736a.689.689,0,0,1-.361.115,5.273,5.273,0,0,1-1.52,2.334,3.6,3.6,0,0,1-1.9.885A.3.3,0,0,1-423.372,389.967Zm-3.307-3.778h.194l.057.185a4.856,4.856,0,0,0,1.419,2.3,3.169,3.169,0,0,0,1.584.768l.021,0,.1,0a3.2,3.2,0,0,0,1.557-.759,4.86,4.86,0,0,0,1.429-2.3l.057-.185.29.018a.171.171,0,0,0,.159-.018c.1-.065.337-.323.429-1.343a.523.523,0,0,0-.076-.4c-.091-.089-.281-.069-.363-.061l-.082.006-.252-.01v-.253c0-.126.012-.423.025-.706.011-.249.021-.487.021-.58a3.19,3.19,0,0,0-3.187-3.187h-.151a3.192,3.192,0,0,0-3.193,3.187c0,.093.01.331.021.58.013.283.025.58.025.706v.253l-.272.01-.065-.006c-.082-.008-.272-.028-.361.061a.523.523,0,0,0-.077.4c.091,1.018.331,1.277.429,1.342a.175.175,0,0,0,.161.019Z" fill="#50b848"/>
        </g>
      </g>
    </g>
  </g>
</svg>
