<svg xmlns="http://www.w3.org/2000/svg" width="21.546" height="22.107" viewBox="0 0 21.546 22.107">
  <g id="Group_850" data-name="Group 850" transform="translate(-294.49 -316.625)">
    <g id="Group_358" data-name="Group 358" transform="translate(-1 -23)">
      <path id="Path_274" data-name="Path 274" d="M304.444,351.96c2.727,0,5.02-2.784,5.02-6.167a6.874,6.874,0,0,0-1.474-4.313,4.452,4.452,0,0,0-3.546-1.855c-2.785,0-5.022,2.784-5.022,6.168s2.237,6.167,5.022,6.167Zm0-11.189c2.125,0,3.874,2.237,3.874,5.022s-1.749,5.021-3.874,5.021c-2.184,0-3.934-2.237-3.934-5.021s1.75-5.022,3.934-5.022Zm-3.934,10.043a5.093,5.093,0,0,0-5.02,5.078,1.7,1.7,0,0,0,1.692,1.69h14.466a1.7,1.7,0,0,0,1.692-1.69,5.058,5.058,0,0,0-5.022-5.078.6.6,0,0,0-.547.6.587.587,0,0,0,.547.543,3.913,3.913,0,0,1,3.93,3.932.6.6,0,0,1-.6.545H297.182a.55.55,0,0,1-.547-.545,3.9,3.9,0,0,1,3.875-3.932.548.548,0,0,0,.549-.543.563.563,0,0,0-.549-.6Z" fill="#50b848" fill-rule="evenodd"/>
    </g>
    <rect id="Rectangle_89" data-name="Rectangle 89" width="9" height="6.531" transform="matrix(0.587, -0.809, 0.809, 0.587, 305.464, 334.896)" fill="#fff"/>
  </g>
</svg>
