<svg xmlns="http://www.w3.org/2000/svg" width="23.981" height="17.156" viewBox="0 0 23.981 17.156">
  <g id="Group_228" data-name="Group 228" transform="translate(-740.742 -872.001)">
    <path id="Path_181" data-name="Path 181" d="M747.268,881.719h0a4.856,4.856,0,1,0-4.861-4.857A4.822,4.822,0,0,0,747.269,881.719Zm-2.526-7.383a3.571,3.571,0,1,1,2.527,6.1h0a3.57,3.57,0,0,1-2.526-6.1Z" transform="translate(-0.37)" fill="#50b848"/>
    <path id="Path_182" data-name="Path 182" d="M762.268,881.719h0a4.856,4.856,0,1,0-4.86-4.857A4.821,4.821,0,0,0,762.268,881.719Zm-2.526-7.383a3.571,3.571,0,1,1,2.527,6.1h0a3.57,3.57,0,0,1-2.526-6.1Z" transform="translate(-3.702)" fill="#50b848"/>
    <path id="Path_183" data-name="Path 183" d="M764.721,891.114c.005-.173.11-4.276-2.471-6.639a.641.641,0,0,0-.825-.036,5.04,5.04,0,0,1-3.905.844,1.846,1.846,0,0,0-1.408-1.57,2.524,2.524,0,0,0-2.8,1.214.3.3,0,0,1-.251.153.309.309,0,0,1-.264-.149,2.555,2.555,0,0,0-2.226-1.31,2.355,2.355,0,0,0-.6.076,1.852,1.852,0,0,0-1.339,1.347,4.218,4.218,0,0,1-4.41-.6.644.644,0,0,0-.828.013,9.171,9.171,0,0,0-2.651,6.629.643.643,0,0,0,.643.652h0l11.025,0a.645.645,0,0,0,.32-.087.653.653,0,0,0,.324.089h0l11.025,0A.643.643,0,0,0,764.721,891.114Zm-22.663-.662a8.12,8.12,0,0,1,1.829-4.658,5.469,5.469,0,0,0,4.824.6,10.634,10.634,0,0,0,3.012,3.766c.01.1.019.205.024.3Zm7.268-4.856a1.085,1.085,0,0,1,.84-1.162,1.594,1.594,0,0,1,.405-.051,1.8,1.8,0,0,1,1.566.929,1.069,1.069,0,0,0,.925.53,1.058,1.058,0,0,0,.916-.547,1.755,1.755,0,0,1,1.944-.844,1.077,1.077,0,0,1,.858,1.146c0,1.239-1.835,3.206-3.725,4.677C751.57,889.105,749.326,886.981,749.326,885.6Zm4.715,4.856a11.893,11.893,0,0,0,3.293-3.89,6.12,6.12,0,0,0,4.4-.782,8.138,8.138,0,0,1,1.683,4.671Z" transform="translate(0 -2.581)" fill="#50b848"/>
  </g>
</svg>
